<svg width="48" height="48" viewBox="0 0 48 48" fill="none" xmlns="http://www.w3.org/2000/svg">
<path d="M24.433 31.1572C23.8131 30.5264 22.787 30.5264 22.1671 31.1572L17.0048 36.4103V7.63238C17.0048 6.74054 16.278 6.00098 15.4015 6.00098C14.5251 6.00098 13.7983 6.74054 13.7983 7.63238V36.432L8.73082 31.1789C8.1109 30.5481 7.08484 30.5481 6.46493 31.1789C5.84502 31.8097 5.84502 32.8538 6.46493 33.4846L14.2686 41.522C14.5892 41.8483 14.9954 42.0006 15.4015 42.0006C15.8077 42.0006 16.2138 41.8483 16.5345 41.522L24.433 33.4846C25.0529 32.8538 25.0529 31.8097 24.433 31.1789V31.1572Z" fill="#929292"/>
<path d="M23.567 16.8438C24.1869 17.4746 25.213 17.4746 25.8329 16.8438L30.9952 11.5907L30.9952 40.3686C30.9952 41.2604 31.722 42 32.5985 42C33.4749 42 34.2017 41.2604 34.2017 40.3686L34.2017 11.5689L39.2692 16.822C39.8891 17.4529 40.9152 17.4529 41.5351 16.822C42.155 16.1912 42.155 15.1471 41.5351 14.5163L33.7314 6.47896C33.4108 6.15268 33.0046 6.00042 32.5985 6.00042C32.1923 6.00042 31.7862 6.15268 31.4655 6.47896L23.567 14.5163C22.9471 15.1471 22.9471 16.1912 23.567 16.822L23.567 16.8438Z" fill="#929292"/>
</svg>
