<?xml version="1.0" encoding="utf-8"?>
<!-- Generator: Adobe Illustrator 27.2.0, SVG Export Plug-In . SVG Version: 6.00 Build 0)  -->
<svg version="1.1" id="Layer_1" xmlns="http://www.w3.org/2000/svg" xmlns:xlink="http://www.w3.org/1999/xlink" x="0px" y="0px"
	 viewBox="0 0 48 36" style="enable-background:new 0 0 48 36;" xml:space="preserve">
<style type="text/css">
	.st0{fill:#08A84E;}
</style>
<g>
	<g>
		<path class="st0" d="M27.2,4.6c0,0.1,0,0.1-0.1,0.1c0,0.1,0.1,0.3,0,0.4c0,0.1,0.1,0.1,0,0.2v0h-0.1c0,0,0,0,0,0c0,0,0,0,0,0.1
			c-0.1,0,0,0-0.1,0.1c0,0,0,0,0,0c0,0,0.1,0,0.1,0c0,0,0,0.1,0,0.1c0,0-0.1,0-0.1,0c0,0,0,0.2-0.1,0.2C27,6,27,6,26.9,6
			c0,0.1,0,0.1,0,0.2c0,0,0,0-0.1,0v0c0.1,0,0.1,0.1,0.1,0.1c0,0.1-0.1,0.1-0.1,0.1c0,0.1,0,0.1,0,0.2c-0.1,0.1-0.2,0.2-0.2,0.3
			c0,0,0,0-0.1,0c-0.1,0.1-0.1,0.2-0.2,0.3c0,0,0,0,0,0c0,0,0,0.1,0,0.1c0,0-0.1,0-0.1,0v0.1h-0.1c0,0.1-0.1,0.1-0.1,0.2
			c0,0-0.1,0-0.1,0c0,0,0,0,0,0.1c-0.1,0-0.2,0-0.2,0.1C25.6,7.8,25.6,8,25.5,8c0,0-0.1,0-0.1,0c0,0-0.2,0.2-0.2,0.2c0,0,0,0,0,0.1
			c-0.1,0.1-0.3,0.2-0.3,0.3c-0.1,0.2-0.3,0.4-0.5,0.6c0,0,0,0.1-0.1,0.2c0,0.1-0.1,0.1-0.1,0.1C24,9.5,24,9.7,23.9,9.8
			c0,0.1-0.1,0.1-0.2,0.2c0,0.1-0.1,0.1-0.1,0.2c-0.3,0.3-0.5,0.6-0.8,0.8c0,0,0,0,0,0c-0.2,0.1-0.4,0.3-0.5,0.5c0,0,0,0,0,0
			c0.1,0,0.1-0.1,0.1-0.1c0,0,0,0,0,0c0,0,0,0,0,0c0,0.1-0.1,0.1-0.1,0.1c0,0,0,0,0,0c0,0,0,0-0.1,0c0.1-0.1,0.2-0.2,0.2-0.4
			c-0.1,0-0.3,0.3-0.4,0.4c0,0,0,0.1,0,0.1c0,0-0.1,0-0.1,0.1c0,0-0.1-0.1-0.1-0.1c0,0,0-0.1,0-0.1h0c0,0-0.1,0.1-0.2,0.1
			c0,0,0,0,0,0c0.1-0.1,0.1-0.2,0.1-0.3c0.1-0.2,0.3-0.4,0.4-0.6c-0.1,0-0.1,0-0.1,0c0,0,0,0,0.1,0c0,0,0,0,0,0
			c-0.1,0-0.1,0.1-0.2,0.1c0,0.1,0,0.1,0,0.2c-0.1,0-0.1,0.1-0.1,0.1c0,0,0,0.1,0,0.1c-0.1,0-0.1,0-0.2,0c-0.1,0.1-0.2,0.3-0.3,0.3
			c0,0,0,0,0,0.1c0,0,0,0,0,0c0,0,0,0,0,0c-0.1,0.1-0.2,0.2-0.2,0.3c0,0-0.1,0-0.1,0v0c0,0,0,0,0,0c0,0,0,0.1-0.1,0.1c0,0,0,0,0,0
			c0,0,0,0,0,0c0,0,0,0,0-0.1h-0.1c0,0.1,0,0.1-0.1,0.3c0,0,0,0,0,0c0,0,0,0-0.1,0v0c0,0,0,0,0,0c0,0,0,0,0,0c0,0,0,0,0,0
			c-0.1,0-0.1,0.1-0.2,0.1c0,0.1,0,0.1,0,0.1c-0.1,0-0.3,0.1-0.3,0.2c0,0,0,0,0,0.1c0,0,0,0-0.1,0c0,0,0,0,0,0c0,0,0.1-0.1,0.1-0.1
			c0,0,0,0,0,0c0,0,0,0,0,0c0,0.1-0.1,0.1-0.1,0.2h0c0-0.1,0.1-0.2,0.1-0.2c0,0-0.1,0.4-0.1,0.4c-0.1,0-0.2,0.2-0.2,0.3h0
			c0,0,0,0,0,0c0,0,0,0,0,0c0,0,0,0,0,0.1h0c0,0,0.1,0,0.1,0c0,0.1-0.1,0.1-0.2,0.2c0,0,0,0.1,0,0.1c0,0-0.1,0-0.1,0.1c0,0,0,0,0,0
			c-0.1,0.1-0.2,0.2-0.3,0.2c-0.1,0.2-0.3,0.4-0.5,0.5c0,0,0,0,0.1,0.1c0,0,0,0,0,0.1c0,0-0.1,0-0.1,0c0,0,0,0,0,0
			c-0.1,0-0.1,0-0.1,0c0,0.1-0.1,0.1-0.2,0.1c0,0,0,0.1,0.1,0.1c0,0,0,0.1,0,0.1c0.1,0,0,0,0.1,0c0,0.1,0.2,0.1,0.2,0.2
			c0,0.1,0,0.1,0,0.1c0.1,0,0.1,0,0.2,0.1c0,0,0,0,0,0c0,0.1,0.1,0.1,0.2,0.1c0,0,0,0.1,0.1,0.1c0,0,0.1,0,0.1,0
			c0.1,0,0.1,0.1,0.2,0.1c0,0.1,0,0.1,0.1,0.1c0,0,0,0,0,0c0,0,0,0,0.1-0.1c0,0,0.1,0,0.1,0c0,0.1,0.6,0.4,0.7,0.4c0.1,0,0,0,0.1,0
			c0,0,0.2,0.2,0.2,0.2c0.2,0,0.5,0.2,0.7,0.3c0,0,0.1,0,0.1,0c0,0,0,0.1,0.1,0.1c0.1,0,0.1,0,0.2,0c0,0.1,0.8,0.4,1,0.5
			c0,0,0,0,0,0c0.1,0,0.5,0.2,0.6,0.3c0.4,0.2,0.8,0.4,1.1,0.6c0.1,0.1,0.4,0.2,0.5,0.3c0,0,0,0,0.1,0c0.1,0.2,0.2,0.1,0.4,0.2
			c0,0,0,0,0,0.1c0,0,0.3,0.2,0.3,0.2c0.1,0,0.1,0,0.2,0c0,0,0.1,0.1,0.1,0.1c0.1,0.1,0.2,0,0.3,0.1c0,0,0,0,0,0
			c0.1,0.1,0.2,0,0.2,0.1c0.1,0,0.1-0.1,0.1,0c0.1,0,0.1,0.1,0.1,0.1c0.1-0.1,0.2,0,0.3,0.1c0,0,0,0,0.1,0c0,0,0.1,0.1,0.1,0.1
			c0,0,0.1,0,0.2,0c0,0,0,0,0.1,0c0.1,0,0.3,0.2,0.4,0.2c0,0,0.1,0,0.1,0c0,0,0.1,0,0.1,0.1c0,0,0.1,0,0.1,0c0,0,0,0,0,0.1
			c0,0,0,0,0.1,0c0.1,0.1,0.3,0,0.4,0.1c0.1,0,0.2-0.1,0.3,0c0,0,0.1,0.1,0.1,0.1c0,0,0,0,0.1,0c0,0.1,0.6,0.1,0.7,0.1
			c0,0,0,0,0,0.1c0.1,0,0.3,0,0.4,0.1c0.1-0.1,0.2,0.1,0.3,0c0.2,0,0.4,0.1,0.6,0.1c0.1,0,0.3,0,0.3,0c0,0,0,0,0,0.1c0,0,0,0,0.1,0
			c0,0,0,0,0,0.1c0.1,0,0.2,0,0.2,0c0,0,0,0.1,0,0.1c0.2,0,0.3,0.1,0.5,0.1c0,0,0,0.1,0,0.1l0.1,0c0,0,0,0,0-0.1c0,0,0,0,0.1,0
			c0.1,0.1,0.3,0.1,0.4,0v0c0.1,0,0.2-0.1,0.3,0c0,0.1,0.1,0.1,0.2,0.1c0,0,0,0,0,0c0.1,0,0.2,0,0.2,0c0,0,0.2-0.1,0.2,0
			c0.1,0,0.2,0,0.3,0.1c0,0,0.1,0,0.1,0c0,0,0.1,0.1,0.1,0.1c0.1,0,0,0,0.1,0c0.1,0.1,0.2,0.1,0.3,0c0,0,0.1,0.1,0.2,0.1
			c0.1,0,0.1-0.1,0.2,0c0,0,0.1,0.1,0.1,0.1c0,0,0.1,0,0.1-0.1c0.1,0,0.1,0.1,0.3,0.1c0,0,0.1-0.1,0.1-0.1c0,0,0,0,0.1,0
			c0,0,0,0,0,0C36.6,21,36.8,21,37,21c0,0,0,0,0.1,0c0.3,0,1,0.1,1.2,0l0.4,0c0,0,0.1,0,0.1,0c0.1,0,0.2,0,0.3,0l0.8,0
			c0,0,0,0,0-0.1c0,0,0,0,0,0.1c0.4,0,0.7,0.1,1,0.2c0.1,0.1,0.2,0.2,0.4,0.2v0c-0.1,0.1-0.2,0-0.3,0.1c0,0-0.1,0.1-0.1,0.1
			c0,0-0.1,0-0.2,0c0,0,0,0,0,0c0,0,0,0-0.1,0c0,0,0,0,0,0c-0.1,0-0.2,0-0.3,0c0,0,0,0-0.1,0.1v-0.1h0c0,0,0,0,0,0c0,0,0,0,0,0.1
			h-0.1c0,0,0,0,0-0.1h0c-0.1,0.1-0.3,0-0.4,0c-0.1,0-0.1,0-0.1,0.1v0c0,0,0.1,0,0.1,0v0c0,0,0,0,0.1,0v0c0,0,0,0-0.1,0.1
			c-0.2-0.1-0.3,0-0.4,0c0,0,0,0-0.1,0.1h0c0,0,0,0,0,0c-0.1,0.1-0.3,0-0.4,0.1c0,0-0.1,0-0.1,0c0,0-0.1,0.1-0.1,0.1
			c0,0-0.1,0-0.1,0c0,0,0,0,0,0c0,0,0,0-0.1,0v0.1c0,0,0.1,0,0.1,0v0c0,0,0,0,0,0c0,0-0.4,0.1-0.4,0.1c-0.1,0.1-0.3,0-0.5,0
			c-0.1,0-0.4,0.1-0.5,0.2c0,0,0,0,0,0.1h0.1c0,0-0.3,0.2-0.4,0.2c0,0,0,0,0,0.1c-0.1,0-0.1,0-0.1,0.1c0,0-0.1,0-0.1,0
			c0,0,0,0,0,0.1c0,0,0,0.1,0,0.1c0,0,0,0,0,0c0-0.1,0-0.1,0.1-0.1c0,0,0,0,0.1,0.1v0.1c0,0,0,0,0,0c0,0-0.1,0-0.1-0.1
			c0,0,0,0.1-0.1,0.1c0,0,0-0.1,0-0.1h0c0,0,0,0.1-0.1,0.1h-0.1v0c0,0,0,0,0,0c0,0,0,0,0,0c0,0,0,0-0.1,0c0,0,0,0,0,0.1
			c0,0,0,0,0-0.1c0,0,0,0-0.1,0c0,0,0,0,0-0.1c0,0,0,0,0,0.1c0,0,0,0-0.1,0c0,0,0,0,0-0.1c0,0,0,0,0,0c0,0-0.1,0-0.1,0.1
			c0,0,0,0,0,0.1c0,0,0,0,0,0c0,0,0,0,0,0c0,0-0.1,0-0.1,0c0,0,0,0,0-0.1h0c0,0.1-0.2,0.1-0.3,0.2v0c0,0,0,0,0,0c0,0,0,0,0,0
			c0,0,0,0,0,0c0,0.1,0.1,0.1,0.1,0.1c0,0,0,0,0,0c0,0,0,0,0,0c0,0,0,0-0.1,0c0,0.1,0,0,0,0c-0.2,0.1-0.3,0.2-0.5,0.2
			c-0.1,0-0.3,0-0.4,0c-0.1,0-0.3,0.1-0.5,0.1c0,0.2-0.2,0.1-0.3,0.2c0,0,0,0,0,0.1c0,0,0,0,0,0c0.1,0,0.4,0.1,0.4,0
			c0.3,0.1,1,0,1.3-0.1c0,0,0,0.1,0,0.1c-0.1,0-0.3,0-0.3,0.1c-0.1-0.1-0.5,0.1-0.7,0c-0.4,0-0.8,0-1.3,0.1c-0.1,0-0.2,0.2-0.3,0.2
			c0,0-0.1,0-0.1,0c-0.1,0.1-0.2,0.1-0.3,0.2c0,0,0,0.1,0,0.1l-0.4,0.2c0,0,0,0,0,0c0,0-0.6,0.1-0.6,0.2c0,0,0,0.1,0,0.2
			c-0.1,0-0.1,0-0.1,0.1c0,0,0,0,0,0c0,0,0,0,0.1,0c0,0,0,0,0.1,0v0c-0.1,0.1-0.3,0.1-0.3,0.3c0,0,0,0,0,0c0,0-0.2,0-0.2,0.1
			c0,0,0.1,0,0.1,0v0v0c-0.1,0-0.2,0.1-0.3,0.1c0,0,0,0.1,0,0.1c-0.1,0-0.3,0-0.5,0.1c0,0,0,0.1,0,0.1c-0.2,0.1-0.5,0.1-0.8,0.2
			c0,0-0.2,0.1-0.3,0.1c-0.1,0-0.3-0.1-0.4,0c0,0-0.1-0.1-0.1-0.1c-0.1,0-0.2,0.1-0.3,0.1c-0.1,0-0.2,0-0.3,0c0,0.1,0,0.1,0,0.1
			c-0.1,0-0.1,0-0.2,0c0,0,0,0.1-0.1,0.1c-0.1,0-0.1,0-0.2,0c0,0,0,0,0,0c0,0-0.4,0.1-0.5,0.2c-0.1-0.1-0.1,0-0.2,0
			c-0.1-0.1-0.1-0.1-0.1-0.2c-0.1,0-0.1,0-0.2,0c-0.1,0-0.2,0-0.3,0c0-0.1-0.1-0.2-0.2-0.3c-0.1,0-0.1,0-0.2,0c0,0,0,0,0,0
			c-0.1,0-0.2,0-0.2-0.1h0c0,0,0,0,0,0c0,0,0.1,0,0.1,0.1v0c0,0-0.1-0.1-0.1-0.1c-0.1,0-0.1-0.1-0.2-0.1c0,0.1-0.5-0.1-0.5-0.1
			c-0.1-0.1-0.1-0.1-0.1-0.2c-0.1,0-0.6-0.2-0.6-0.3c0,0,0,0,0,0c0,0,0,0,0.1,0c0-0.1,0-0.1,0.1-0.1c0,0,0-0.1-0.1-0.1
			c0,0-0.1,0-0.1,0v0c0,0,0,0.1,0,0.1c-0.1,0-0.3,0-0.4-0.1c0,0,0,0,0-0.1c0,0,0.1,0,0.1,0c0,0,0-0.1,0-0.1c-0.1,0-0.4-0.2-0.4-0.2
			c0,0,0,0,0,0c-0.1-0.1-0.2-0.1-0.4-0.2c0,0,0,0,0,0c0,0,0,0,0-0.1c-0.1-0.1-0.3-0.2-0.4-0.3c0,0-0.1,0-0.1,0c0,0-0.2-0.2-0.2-0.3
			h0c0.1,0.1,0.1,0.1,0.3,0.1v0c-0.2-0.2-0.5-0.4-0.7-0.5c-0.2-0.1-0.5,0.1-0.6,0c-0.3-0.2-0.6-0.4-1-0.5c-0.1-0.1-0.3-0.1-0.5-0.1
			c-0.1,0-0.2-0.1-0.3-0.2c-0.1,0-0.1,0-0.2-0.1c0,0,0,0,0-0.1c-0.1,0-0.3,0-0.3,0c-0.1-0.1-0.1-0.2-0.3-0.2V23c0,0,0,0,0,0
			c0,0,0-0.1,0-0.1c-0.1,0-0.3-0.1-0.3-0.2c0,0,0,0,0,0c0,0,0,0,0,0v0c0.1,0,0.1,0,0-0.1c-0.1,0-0.2-0.2-0.2-0.2
			c-0.3-0.1-0.7-0.4-0.9-0.5c-0.1,0-0.5-0.2-0.5-0.3c0,0,0,0,0,0c0,0,0,0,0-0.1c-0.1,0-0.1-0.1-0.2-0.1v-0.1c0,0,0,0,0,0
			c0,0-0.1,0-0.1,0c-0.1-0.1-0.3-0.2-0.4-0.2c0,0,0,0-0.1,0c0,0,0,0,0,0c0,0,0,0,0-0.1c-0.1,0-0.2,0-0.3,0c0,0,0-0.1-0.1-0.1
			c0,0-0.1,0-0.1,0c0,0-0.1-0.1-0.1-0.1c-0.1,0-0.1,0-0.2,0c0,0-0.1-0.1-0.1-0.1c0,0,0,0-0.1,0c-0.1,0-0.1-0.1-0.2-0.1
			c-0.1,0-0.2,0-0.3-0.1c-0.1,0-0.1,0-0.1,0c0,0,0,0,0,0c-0.1,0-0.1,0-0.2,0.1c0,0.1,0,0,0,0.1v0c-0.1,0,0,0-0.1,0
			c0,0.1,0,0.1-0.1,0.1c0,0,0,0,0,0c0,0,0,0.1,0,0.1c-0.1,0-0.1,0.1-0.1,0.1c0,0,0,0,0,0h0c0,0,0,0,0,0c0,0,0,0,0,0
			c0,0.1-0.1,0.1,0,0.2c0,0,0,0,0,0c0,0-0.1,0.1-0.1,0.1c0,0,0,0,0-0.1c0,0-0.1,0-0.1,0c0,0,0,0,0,0c-0.1,0.1-0.1,0.2-0.1,0.3
			c0,0,0,0,0,0c0,0.1-0.2,0.3-0.2,0.5l0,0.1c0,0-0.1,0,0,0.1c0,0,0,0,0.1,0c0,0,0,0,0,0c0,0-0.3,0.5-0.2,0.6h0.1
			c0-0.1,0.1-0.1,0.1-0.2c0,0,0,0,0,0c0,0,0,0,0,0c0,0,0,0,0,0c0,0.1-0.1,0.2-0.1,0.3h0c0,0,0,0,0,0c0,0,0,0,0,0.1
			c0,0.2-0.1,0.5-0.2,0.6c-0.1,0.1-0.1,0.8-0.1,0.8c0,0,0,0.1,0,0.1c0,0.1,0,0.1,0,0.2c0,0.1-0.1,0.3,0,0.4c0,0,0,0,0,0c0,0,0,0,0,0
			c0.1,0.3,0.2,0.8,0.2,1.1c0,0.1-0.2,0.4-0.2,0.5h-0.1c0,0,0,0.1-0.1,0.1c0,0,0,0-0.1,0c0,0,0,0,0,0.1c-0.1,0-0.1,0.1-0.1,0.1
			c0,0.1,0,0.2-0.1,0.2c0,0.1,0,0.1,0,0.2c-0.1,0-0.1,0.1-0.2,0.1c-0.1,0-0.1,0-0.2,0c0,0,0,0.1,0,0.1h-0.1c0,0.2-0.3,0.3-0.5,0.2
			c0,0.1-0.1,0.1-0.2,0.2c0,0,0,0,0,0c0,0-0.1,0-0.1,0c0,0,0,0,0-0.1c0,0-0.1,0.1-0.1,0.1c0,0,0,0,0,0c0-0.1,0-0.1-0.1-0.1
			c0,0-0.1,0-0.1,0c0-0.1-0.2-0.2-0.3-0.2c-0.1,0-0.2-0.1-0.3-0.2c-0.1,0-0.3,0-0.3-0.1c0,0,0,0,0-0.1c-0.1-0.1-0.3-0.1-0.4-0.2
			c0,0,0,0,0-0.1c0,0-0.1,0-0.1,0c0-0.2-0.2-0.2-0.3-0.3c0-0.1-0.1-0.1-0.1-0.2c-0.1,0-0.2-0.2-0.2-0.3c0,0-0.2-0.1-0.2-0.2
			c-0.1-0.2-0.2-0.4-0.3-0.6v-0.1c0-0.1-0.4-0.9-0.3-1c0,0-0.1-0.1-0.1-0.1c0,0,0-0.1,0-0.1c0,0,0-0.1,0-0.2c0-0.1-0.1-0.2-0.1-0.2
			c0-0.1,0-0.1,0-0.2c0,0,0-0.1,0-0.1c0.1-0.2,0.1-0.4,0.2-0.6c0-0.1,0-0.1,0-0.2c0,0,0,0,0-0.1c0-0.1,0-0.1,0-0.2
			c0-0.2,0.1-0.3,0.1-0.4c0-0.1,0-0.2,0-0.3c0-0.2,0.1-0.4,0.1-0.5c0-0.1,0-0.3,0.1-0.4c0.2-0.4,0.1-1,0.2-1.4c0-0.1,0-0.4,0.1-0.4
			c0,0,0,0,0.1,0c0,0,0-0.4,0-0.4c0,0,0.1-0.1,0.1-0.1c0,0,0-0.1,0-0.1c0.1-0.1,0-0.2,0.1-0.4c0-0.1,0.1-0.2,0.1-0.3
			c0-0.1,0.1-0.4,0.1-0.4c0.1-0.2,0.2-0.6,0.3-0.9c0,0-0.1,0-0.1-0.1c0-0.1,0-0.2,0.1-0.3c-0.1-0.2,0-0.5,0.1-0.6h0
			c0,0.1,0,0.1,0,0.2h0c0.3-0.3,0.2-1,0.3-1.4c0.1-0.4,0.1-0.8,0.2-1.3c0-0.1,0-0.3,0-0.4c0.1-0.3,0.1-0.6,0.2-0.9
			c0,0,0-0.1,0.1-0.1c0,0,0-0.1,0-0.1c0,0,0-0.1,0.1-0.1c0,0,0,0,0,0c0,0.1-0.1,0.3-0.1,0.4h0v0c0,0,0,0,0-0.1
			c0.1-0.1,0.1-0.4,0.1-0.5c0,0,0,0,0.1,0c0,0-0.1-0.2,0-0.2c0,0,0,0,0,0c0-0.1,0-0.2,0-0.3c0,0,0,0,0,0c0,0.1,0,0.2,0,0.2v0
			c-0.1-0.1,0-0.2,0-0.3c0-0.1,0-0.5,0.1-0.6c0,0,0,0,0.1,0c0-0.1,0-0.1,0-0.2c0,0,0,0,0,0c0.1,0,0.1,0,0.1,0c0,0-0.1,0-0.1-0.1
			c0-0.1,0.1-0.7,0.1-0.7c0,0,0,0,0,0c0,0,0.1-0.3,0.1-0.4c0,0-0.1-0.1,0-0.1c0,0,0,0,0.1,0c0,0,0,0,0,0c0-0.1,0-0.3,0-0.4
			c0,0,0-0.1,0-0.1c0.1-0.2,0.2-0.8,0.1-1.1c0-0.1,0-0.2,0-0.3c0,0,0-0.1-0.1-0.1c0-0.1,0-0.1,0-0.2c0-0.1-0.1-0.1-0.1-0.1
			c0,0,0,0,0.1,0c0-0.1-0.1-0.3,0-0.4c0,0-0.1,0-0.1-0.1c0.1-0.1,0-0.3,0-0.4c0.1-0.1,0-0.1,0-0.2c0,0,0-0.1,0-0.1
			c-0.1-0.1-0.1-0.5-0.2-0.7c0,0,0,0-0.1-0.1c0-0.1,0-0.1,0-0.1C9.9,4,9.9,4,10,3.8c-0.1,0-0.1-0.1-0.2-0.2c0,0,0-0.1,0-0.1
			c-0.1,0-0.1-0.1-0.1-0.2c0,0,0,0,0.1-0.1c-0.1,0-0.1-0.1-0.1-0.2c0,0-0.1,0-0.1,0v0c0,0,0,0,0,0c0-0.1-0.1-0.3-0.1-0.3
			c0,0,0,0,0,0V2.5c0,0,0-0.1-0.1-0.1c0.1-0.3-0.2-0.6-0.2-0.9c0-0.1,0-0.3,0.1-0.3c0-0.1,0-0.2,0.1-0.3c0,0,0,0,0.1,0
			c0,0,0.2-0.1,0.2-0.1c0,0,0-0.1,0.1-0.1c0.2,0,0.4,0.1,0.6,0.1c0,0,0,0.1,0.1,0.1c0-0.1,0.1,0.1,0.1,0c0.1,0,0.1,0,0.2,0
			c0,0,0,0,0,0c0,0,0.1,0,0.1,0c0,0,0,0,0,0C11,0.9,11.1,1,11.2,1c0,0,0,0.1,0,0.1c0.1,0,0.3,0.1,0.3,0.1c0,0,0,0.1,0,0.1
			c0.2,0,0.2,0.2,0.4,0.3c0,0,0.1,0,0.2,0c0,0,0,0.1,0.1,0.1c0,0,0.2,0.1,0.2,0.1c0,0,0,0,0,0c0,0.1,0.1,0,0.1,0.1v0.1
			c0.1,0,0.1,0,0.1,0c0.1,0,0.2,0.1,0.2,0.2c0,0,0,0,0,0c0,0,0,0,0,0c0,0,0.1,0,0.1,0c0,0,0.1,0.1,0.1,0.1c0,0.1,0,0.1,0,0.2
			c0.1,0.1,0.2,0.2,0.3,0.3c0,0,0,0.1,0,0.1c0.1,0.1,0.1,0.1,0.1,0.3c0.1,0,0.1,0.1,0.1,0.2c0,0,0,0,0.1,0c0,0,0,0,0,0
			c0,0.2,0.3,0.5,0.3,0.6c0,0.1,0.1,0.1,0.1,0.2c0,0,0,0.1,0,0.1c0,0.1,0,0.1,0,0.2c0.1,0,0,0,0.1,0c0,0.1,0,0.1,0,0.1
			c-0.1,0.1,0,0.2,0,0.4c0,0,0,0.1,0.1,0.1c0,0.1,0,0.2,0,0.2c0,0-0.1,0-0.1,0c0,0.1,0.1,0.1,0.1,0.1c0,0,0,0.1,0,0.1
			c0,0,0.1,0.1,0.1,0.1c0,0.1,0,0.1-0.1,0.1v0c0,0,0,0,0,0v0.1c0,0,0,0-0.1,0c0,0.1,0.1,0.1,0.1,0.2c0,0,0,0,0,0c0,0.1,0,0.2,0,0.3
			c0,0,0,0-0.1,0c0,0.1,0,0.1,0,0.2c0,0,0,0,0,0c0,0,0,0.1,0,0.1c0,0,0,0-0.1,0.1c0,0,0,0-0.1,0c0.1,0.1,0,0.2,0,0.4
			c0.1,0,0.1,0.1,0.1,0.1c0,0-0.1,0.1-0.1,0.2c0,0,0,0.1,0,0.1c0,0.1,0.1,0.2,0.1,0.2c0,0.2-0.1,0.5,0,0.7h0.1c0,0,0,0,0,0.1
			c0,0.1-0.1,0.2-0.1,0.2c0,0,0,0,0.1,0c0,0,0,0,0,0.1c0,0,0,0,0,0c0,0,0,0,0,0c0,0,0,0,0.1,0c-0.1,0.1,0,0.2,0,0.3h-0.1v0
			c0,0,0,0.1,0,0.1c0.1,0,0.1,0,0.1,0.1c0,0,0,0-0.1,0.1c0.1,0,0.1,0.1,0,0.2c0,0.1,0.1,0.1,0.1,0.2c-0.1,0-0.1,0.2,0,0.3
			c0,0,0,0,0.1,0c0,0.1-0.1,0.1-0.1,0.1c0,0.1-0.1,0.3,0,0.4c-0.1,0.1-0.1,0.1-0.2,0.1v0.2h0c0,0,0,0,0-0.1h0c0,0,0,0.1,0,0.1h0
			c0,0,0,0,0,0c0.1,0,0.1-0.1,0.1-0.1v0c0,0,0,0.1,0,0.1h0c0.2-0.1,0.2-0.2,0.3-0.3c0,0,0.1,0,0-0.1c0.2-0.1,0.4-0.2,0.5-0.4
			c0.1-0.1,0.3-0.3,0.3-0.3c0-0.1,0-0.1,0-0.1c0.1,0,0.4-0.3,0.5-0.4v0c0,0,0,0,0,0c0-0.1,0-0.1,0-0.1c0-0.1,0.1,0,0.1-0.1
			c0,0,0,0,0.1,0c0,0,0,0,0,0c0-0.1,0.2-0.1,0.2-0.2c0,0,0-0.1,0-0.1c0.1,0,0.1-0.1,0.2-0.1c0,0,0,0,0-0.1c0,0,0.1,0,0.2-0.1
			c0,0,0.1-0.2,0.1-0.2c0.2-0.1,0.3-0.3,0.5-0.4c0-0.1,0-0.1,0.1-0.2c0,0,0,0,0,0c0,0,0,0,0,0c0.1-0.1,0.1-0.2,0.2-0.3
			c0,0,0.1,0,0.1,0c0-0.1,0.6-0.4,0.7-0.7c0,0,0,0,0.1,0c0,0,0-0.1,0-0.1c0,0,0.1,0,0.1,0c0.1-0.1,0.2-0.3,0.3-0.4
			c0.1-0.1,0.5-0.3,0.5-0.5c0-0.1,0,0,0-0.1c0.1,0,0.1-0.1,0.2-0.1v0c0,0,0,0,0,0c0-0.2,0.2-0.2,0.3-0.3c0,0,0,0,0.1,0
			c0.1-0.1,0.3-0.3,0.4-0.3c0-0.1,0-0.1,0-0.1c0-0.1,0.1,0,0.1,0c0,0,0,0,0-0.1c0.1-0.1,0.1,0,0.2-0.2c0.1,0,0.2-0.1,0.2-0.1
			c0,0,0,0-0.1-0.1c0,0,0,0.1-0.1,0.1c0,0,0,0,0,0c0.1-0.1,0.2,0,0.3-0.1c0,0,0,0,0,0c0-0.1,0,0,0.1,0c0,0,0,0,0,0c0,0-0.1,0-0.1,0
			H21c0,0,0,0,0,0c0,0,0,0,0,0c0,0,0,0,0.1,0c0,0,0,0,0.1,0c0-0.1,0.1-0.1,0.1-0.2c0,0,0,0,0.1,0c0-0.1,0-0.1,0.1-0.1
			c0-0.1,0-0.1,0-0.1c0,0,0,0,0.1,0c0.1-0.2,0.2-0.4,0.3-0.6C21.8,3.4,22,3.3,22,3.1h0c0,0,0-0.1,0-0.1c0,0,0,0,0,0
			c0-0.1,0-0.1,0-0.3h0.1c0-0.1,0.1-0.1,0.1-0.1c0,0,0-0.1,0-0.1c0.1-0.2,0.1-0.3,0.1-0.5c0,0,0.1,0,0.1-0.1c0-0.1-0.1-0.1,0-0.2
			c0-0.1,0.1-0.1,0.1-0.2c0,0,0-0.1,0-0.1c0,0,0.1,0,0.1-0.1c0,0,0,0,0-0.1c0,0,0.1,0,0.1-0.1c0,0,0-0.1,0-0.1c0-0.1,0-0.3,0.1-0.4
			c0-0.1,0.2-0.1,0.3-0.2c0,0,0-0.1,0-0.1c0,0,0.1,0,0.1,0c0,0,0,0,0,0c0,0,0,0,0-0.1c0,0,0,0,0,0c0,0.1,0.1,0.2,0.2,0.4h0.1v0
			c0.1-0.2-0.1-0.3-0.1-0.5c0,0,0,0,0.1,0.1c0,0.1,0.2,0.2,0.3,0.3c0,0,0,0,0,0c0.1,0,0.1,0.1,0.1,0.1c0.2,0.1,0.4,0.1,0.5,0.3
			c0,0,0.5,0.1,0.5,0.2c0,0.1,0,0.1,0,0.1c0,0,0,0,0,0c0.1,0,0.1,0.1,0.1,0.1c0.1,0,0.2,0.1,0.2,0.1c0,0.1,0.2,0.3,0.3,0.3
			c0,0,0,0,0.1,0c0,0.1,0.2,0.2,0.3,0.2c0,0,0,0.1,0,0.1C25.9,2,26,2.2,26.2,2.3c0,0,0.1,0,0.1,0c0.1,0,0.1,0,0.1,0.1
			c0,0,0.1,0,0.2,0c0,0,0,0,0,0c0,0,0.1,0,0.1,0c0,0.1,0.2,0.4,0.2,0.5c0,0.1,0,0.3,0,0.3c0,0,0.1,0.1,0.1,0.1
			c0.1,0.1,0,0.1,0.1,0.2c0,0,0,0,0,0c0,0,0.1,0.3,0,0.3c0,0,0,0-0.1,0c0,0.1,0,0.1,0.1,0.2c0,0-0.1,0.2-0.1,0.3
			c0,0,0.1,0.1,0.1,0.1c0,0,0,0,0,0.1C27.2,4.5,27.2,4.5,27.2,4.6C27.2,4.6,27.2,4.6,27.2,4.6"/>
		<path class="st0" d="M22.6,0.5L22.6,0.5L22.6,0.5z"/>
		<path class="st0" d="M26.2,2.2C26.2,2.2,26.2,2.2,26.2,2.2C26.2,2.2,26.2,2.2,26.2,2.2"/>
		<path class="st0" d="M21,4.6C21,4.6,21,4.6,21,4.6C21,4.6,21,4.6,21,4.6"/>
		<path class="st0" d="M21.1,4.6C21.1,4.6,21.1,4.6,21.1,4.6C21.1,4.6,21.1,4.6,21.1,4.6"/>
		<path class="st0" d="M20.7,4.9C20.7,4.9,20.7,4.9,20.7,4.9C20.7,4.9,20.7,4.9,20.7,4.9"/>
		<path class="st0" d="M20.7,5C20.7,5,20.7,5,20.7,5C20.7,5,20.7,5,20.7,5L20.7,5"/>
		<path class="st0" d="M20.1,5.8L20.1,5.8C20.1,5.8,20.1,5.8,20.1,5.8C20.1,5.8,20.1,5.8,20.1,5.8"/>
		<path class="st0" d="M20,5.9C20,5.9,20,5.8,20,5.9L20,5.9L20,5.9"/>
		<path class="st0" d="M20,5.9C20,5.9,20,5.9,20,5.9L20,5.9C20,5.9,20,5.9,20,5.9"/>
		<path class="st0" d="M27.2,5.9C27.2,5.9,27.2,6,27.2,5.9C27.2,6,27.2,6,27.2,5.9c0,0.1,0,0.1,0,0.1C27.2,6,27.2,6,27.2,5.9"/>
		<path class="st0" d="M27.1,6C27.1,6,27.1,6,27.1,6L27.1,6L27.1,6C27,6,27.1,6,27.1,6"/>
		<path class="st0" d="M19.6,6C19.6,6,19.6,6,19.6,6C19.6,6,19.6,6,19.6,6"/>
		<path class="st0" d="M27.2,6.1C27.2,6.1,27.2,6.1,27.2,6.1C27.2,6.1,27.2,6.1,27.2,6.1C27.2,6.1,27.2,6.1,27.2,6.1"/>
		<path class="st0" d="M27.1,6.1C27.1,6.1,27.1,6.1,27.1,6.1C27.1,6.1,27.1,6.1,27.1,6.1"/>
		<path class="st0" d="M19.3,6.5L19.3,6.5L19.3,6.5C19.3,6.5,19.3,6.5,19.3,6.5L19.3,6.5"/>
		<path class="st0" d="M19.1,6.5L19.1,6.5L19.1,6.5z"/>
		<path class="st0" d="M19.3,6.5C19.3,6.5,19.3,6.5,19.3,6.5c0,0.1,0,0.1,0,0.1h0v0C19.2,6.6,19.2,6.5,19.3,6.5
			C19.3,6.5,19.3,6.5,19.3,6.5"/>
		<path class="st0" d="M19.1,6.6C19.2,6.6,19.2,6.6,19.1,6.6C19.2,6.6,19.2,6.6,19.1,6.6C19.1,6.7,19.1,6.7,19.1,6.6L19.1,6.6
			C19.1,6.6,19.1,6.6,19.1,6.6"/>
		<path class="st0" d="M19.1,6.7L19.1,6.7c0,0.1,0,0.1-0.1,0.1L19.1,6.7C19,6.7,19,6.7,19.1,6.7C19.1,6.7,19.1,6.7,19.1,6.7"/>
		<path class="st0" d="M18.8,6.9C18.8,6.9,18.8,6.9,18.8,6.9C18.8,6.9,18.8,6.9,18.8,6.9"/>
		<path class="st0" d="M18.4,7.3C18.4,7.3,18.4,7.3,18.4,7.3L18.4,7.3L18.4,7.3"/>
		<path class="st0" d="M18.4,7.4L18.4,7.4L18.4,7.4z"/>
		<path class="st0" d="M18.2,7.6L18.2,7.6C18.2,7.6,18.2,7.7,18.2,7.6L18.2,7.6C18.2,7.7,18.2,7.7,18.2,7.6L18.2,7.6
			C18.2,7.6,18.2,7.6,18.2,7.6"/>
		<path class="st0" d="M17.5,7.8C17.5,7.8,17.5,7.8,17.5,7.8C17.5,7.8,17.5,7.8,17.5,7.8C17.5,7.8,17.5,7.8,17.5,7.8"/>
		<path class="st0" d="M17.9,7.8L17.9,7.8C17.9,7.8,17.9,7.8,17.9,7.8C17.9,7.8,17.9,7.8,17.9,7.8C17.9,7.8,17.9,7.8,17.9,7.8
			C17.9,7.8,17.9,7.8,17.9,7.8"/>
		<path class="st0" d="M17.8,7.9C17.8,7.9,17.8,7.9,17.8,7.9L17.8,7.9C17.8,7.9,17.8,7.9,17.8,7.9"/>
		<path class="st0" d="M17.6,8L17.6,8C17.7,8,17.7,8,17.6,8C17.7,8,17.6,8,17.6,8C17.6,8,17.6,8,17.6,8"/>
		<path class="st0" d="M17.7,8C17.7,8,17.7,8,17.7,8C17.7,8,17.7,8,17.7,8"/>
		<path class="st0" d="M17.1,8.1L17.1,8.1L17.1,8.1z"/>
		<path class="st0" d="M16,9.9C16,9.9,16,9.9,16,9.9L16,9.9L16,9.9"/>
		<path class="st0" d="M15.8,10L15.8,10L15.8,10z"/>
		<path class="st0" d="M15.4,10.3L15.4,10.3L15.4,10.3z"/>
		<path class="st0" d="M15.5,10.3C15.5,10.3,15.5,10.4,15.5,10.3C15.5,10.4,15.5,10.3,15.5,10.3"/>
		<path class="st0" d="M15.4,10.5L15.4,10.5L15.4,10.5z"/>
		<path class="st0" d="M14.9,10.8C14.9,10.9,14.9,10.9,14.9,10.8C14.9,10.9,14.9,10.9,14.9,10.8C14.9,10.9,14.8,10.9,14.9,10.8
			C14.8,10.9,14.9,10.9,14.9,10.8C14.9,10.9,14.9,10.8,14.9,10.8"/>
		<path class="st0" d="M22.8,11L22.8,11L22.8,11z"/>
		<path class="st0" d="M22.7,11C22.8,11,22.7,11,22.7,11L22.7,11C22.7,11,22.7,11,22.7,11"/>
		<path class="st0" d="M14.7,11C14.7,11,14.7,11,14.7,11C14.7,11,14.7,11,14.7,11"/>
		<path class="st0" d="M22.7,11C22.7,11,22.7,11,22.7,11C22.7,11.1,22.7,11,22.7,11"/>
		<path class="st0" d="M14.6,11.1L14.6,11.1C14.6,11.1,14.6,11.1,14.6,11.1"/>
		<path class="st0" d="M14.6,11.2L14.6,11.2C14.6,11.2,14.6,11.2,14.6,11.2"/>
		<path class="st0" d="M14.5,11.2L14.5,11.2L14.5,11.2C14.6,11.2,14.6,11.2,14.5,11.2L14.5,11.2"/>
		<path class="st0" d="M14.5,11.3C14.5,11.3,14.5,11.3,14.5,11.3C14.5,11.3,14.5,11.3,14.5,11.3C14.5,11.3,14.5,11.3,14.5,11.3"/>
		<path class="st0" d="M14.5,11.3L14.5,11.3C14.5,11.3,14.5,11.4,14.5,11.3L14.5,11.3C14.4,11.4,14.4,11.4,14.5,11.3L14.5,11.3
			C14.4,11.3,14.4,11.3,14.5,11.3"/>
		<path class="st0" d="M14.3,11.3C14.3,11.4,14.3,11.4,14.3,11.3C14.3,11.4,14.3,11.4,14.3,11.3"/>
		<path class="st0" d="M22.1,11.4C22.1,11.4,22.1,11.4,22.1,11.4C22.1,11.5,22.1,11.4,22.1,11.4C22.1,11.4,22.1,11.4,22.1,11.4"/>
		<path class="st0" d="M22.2,11.5C22.2,11.5,22.2,11.5,22.2,11.5C22.2,11.5,22.2,11.5,22.2,11.5C22.2,11.5,22.2,11.5,22.2,11.5"/>
		<path class="st0" d="M21.6,11.5C21.6,11.5,21.6,11.5,21.6,11.5L21.6,11.5L21.6,11.5C21.5,11.5,21.5,11.5,21.6,11.5"/>
		<path class="st0" d="M22,11.5C22,11.5,22,11.5,22,11.5C22,11.5,22,11.5,22,11.5"/>
		<path class="st0" d="M21.5,11.5C21.5,11.5,21.5,11.5,21.5,11.5C21.5,11.5,21.5,11.5,21.5,11.5C21.5,11.5,21.5,11.5,21.5,11.5"/>
		<path class="st0" d="M22,11.6c-0.1,0-0.1,0-0.2,0C21.9,11.6,22,11.6,22,11.6C22,11.6,22,11.6,22,11.6C22,11.6,22,11.6,22,11.6"/>
		<path class="st0" d="M21.8,11.6C21.8,11.6,21.8,11.6,21.8,11.6c0,0.1-0.1,0.2-0.2,0.2v0c0,0,0,0,0,0c0,0,0-0.1,0-0.1
			C21.7,11.7,21.8,11.6,21.8,11.6"/>
		<path class="st0" d="M21.3,11.6C21.3,11.6,21.3,11.6,21.3,11.6C21.3,11.6,21.3,11.6,21.3,11.6"/>
		<path class="st0" d="M22,11.7C22,11.7,22.1,11.7,22,11.7C22.1,11.7,22,11.7,22,11.7"/>
		<path class="st0" d="M21.3,11.7L21.3,11.7C21.3,11.7,21.3,11.7,21.3,11.7C21.3,11.7,21.3,11.7,21.3,11.7"/>
		<path class="st0" d="M21.8,11.7L21.8,11.7C21.8,11.7,21.8,11.8,21.8,11.7C21.8,11.8,21.8,11.8,21.8,11.7
			C21.8,11.7,21.8,11.7,21.8,11.7"/>
		<path class="st0" d="M21.1,11.8C21.1,11.9,21.1,11.9,21.1,11.8L21.1,11.8C21.1,11.9,21.1,11.9,21.1,11.8"/>
		<path class="st0" d="M21.7,11.8C21.7,11.9,21.7,11.9,21.7,11.8C21.7,11.9,21.7,11.9,21.7,11.8"/>
		<path class="st0" d="M21.6,11.9L21.6,11.9C21.6,11.9,21.6,11.9,21.6,11.9L21.6,11.9C21.5,11.9,21.5,11.9,21.6,11.9"/>
		<path class="st0" d="M21.7,11.9L21.7,11.9C21.7,11.9,21.7,11.9,21.7,11.9"/>
		<path class="st0" d="M21.1,11.9C21.1,11.9,21.1,11.9,21.1,11.9C21.1,11.9,21.1,11.9,21.1,11.9C21.1,11.9,21.1,11.9,21.1,11.9
			C21.1,11.9,21.1,11.9,21.1,11.9"/>
		<path class="st0" d="M21.8,11.9L21.8,11.9L21.8,11.9C21.8,11.9,21.8,11.9,21.8,11.9L21.8,11.9C21.8,11.9,21.8,11.9,21.8,11.9"/>
		<path class="st0" d="M21,11.9C21.1,12,21,11.9,21,11.9C21,12,21,12,21,11.9C21,12,21,11.9,21,11.9"/>
		<path class="st0" d="M9.8,11.9C9.9,12,9.9,12,9.8,11.9c0,0.1-0.1,0.5-0.1,0.6v0C9.8,12.3,9.8,12.1,9.8,11.9"/>
		<path class="st0" d="M21,12C21,12,21,12,21,12C21,12,21,12,21,12"/>
		<path class="st0" d="M21,12L21,12L21,12z"/>
		<path class="st0" d="M21.7,12.1C21.7,12.1,21.7,12.1,21.7,12.1C21.7,12.1,21.7,12.1,21.7,12.1"/>
		<path class="st0" d="M20.9,12.1C20.9,12.1,20.9,12.1,20.9,12.1C20.9,12.1,20.9,12.1,20.9,12.1"/>
		<path class="st0" d="M21.5,12.1C21.6,12.1,21.6,12.1,21.5,12.1c0.1,0,0.1,0,0.1,0c0,0.1-0.1,0.2-0.2,0.2
			C21.5,12.2,21.5,12.2,21.5,12.1C21.5,12.1,21.5,12.1,21.5,12.1"/>
		<path class="st0" d="M21.3,12.1L21.3,12.1L21.3,12.1z"/>
		<path class="st0" d="M21.3,12.1C21.3,12.1,21.3,12.1,21.3,12.1L21.3,12.1C21.3,12.1,21.3,12.1,21.3,12.1"/>
		<path class="st0" d="M20.9,12.1L20.9,12.1c0,0.1-0.1,0.2-0.2,0.2c0,0,0,0,0,0C20.8,12.3,20.8,12.2,20.9,12.1"/>
		<path class="st0" d="M21.2,12.2L21.2,12.2C21.2,12.2,21.2,12.2,21.2,12.2C21.2,12.2,21.2,12.2,21.2,12.2"/>
		<path class="st0" d="M21.3,12.2L21.3,12.2C21.3,12.2,21.3,12.2,21.3,12.2L21.3,12.2"/>
		<path class="st0" d="M21.2,12.2L21.2,12.2C21.2,12.3,21.2,12.3,21.2,12.2C21.2,12.3,21.2,12.3,21.2,12.2"/>
		<path class="st0" d="M21.4,12.3C21.5,12.3,21.5,12.3,21.4,12.3C21.5,12.3,21.5,12.3,21.4,12.3C21.5,12.3,21.4,12.3,21.4,12.3
			L21.4,12.3L21.4,12.3C21.4,12.3,21.4,12.3,21.4,12.3"/>
		<path class="st0" d="M21.4,12.3C21.4,12.3,21.4,12.3,21.4,12.3L21.4,12.3C21.4,12.3,21.4,12.3,21.4,12.3L21.4,12.3
			C21.4,12.3,21.4,12.3,21.4,12.3"/>
		<path class="st0" d="M21.7,12.3L21.7,12.3C21.8,12.3,21.8,12.3,21.7,12.3L21.7,12.3"/>
		<path class="st0" d="M21.3,12.3L21.3,12.3C21.4,12.3,21.4,12.3,21.3,12.3C21.3,12.4,21.3,12.4,21.3,12.3L21.3,12.3
			C21.3,12.3,21.3,12.3,21.3,12.3"/>
		<path class="st0" d="M21.4,12.4C21.4,12.4,21.4,12.4,21.4,12.4C21.4,12.4,21.4,12.4,21.4,12.4"/>
		<path class="st0" d="M20.7,12.4C20.7,12.5,20.7,12.5,20.7,12.4L20.7,12.4C20.6,12.5,20.6,12.5,20.7,12.4
			C20.6,12.5,20.6,12.5,20.7,12.4"/>
		<path class="st0" d="M21.1,12.5L21.1,12.5L21.1,12.5z"/>
		<path class="st0" d="M21.3,12.5C21.3,12.5,21.3,12.5,21.3,12.5c-0.1,0.1-0.2,0.3-0.3,0.3v0c0,0,0-0.1,0-0.1c0,0,0.1,0,0.1-0.1
			c0,0,0,0,0.1,0c0,0,0,0,0-0.1C21.2,12.5,21.3,12.5,21.3,12.5"/>
		<path class="st0" d="M20.6,12.5c0,0.1-0.1,0.3-0.2,0.4v0C20.5,12.7,20.5,12.7,20.6,12.5L20.6,12.5C20.6,12.6,20.6,12.6,20.6,12.5
			C20.6,12.5,20.6,12.5,20.6,12.5"/>
		<path class="st0" d="M9.7,12.5C9.7,12.5,9.7,12.5,9.7,12.5C9.7,12.6,9.7,12.6,9.7,12.5c0,0.2,0,0.3-0.1,0.4v0
			C9.6,12.8,9.7,12.6,9.7,12.5"/>
		<path class="st0" d="M20.9,12.5C20.9,12.5,20.9,12.6,20.9,12.5C20.9,12.6,20.9,12.5,20.9,12.5"/>
		<path class="st0" d="M20.5,12.6C20.5,12.6,20.5,12.6,20.5,12.6C20.5,12.6,20.5,12.6,20.5,12.6"/>
		<path class="st0" d="M21,12.8L21,12.8C21,12.8,21,12.8,21,12.8C21,12.8,21,12.9,21,12.8C21,12.8,21,12.8,21,12.8"/>
		<path class="st0" d="M20.9,12.9C20.9,12.9,20.9,12.9,20.9,12.9C20.9,12.9,20.9,12.9,20.9,12.9"/>
		<path class="st0" d="M20.9,12.9C20.9,12.9,20.9,12.9,20.9,12.9C20.9,12.9,20.9,12.9,20.9,12.9L20.9,12.9c0,0.1-0.3,0.6-0.4,0.6
			c0,0,0,0,0,0c0,0,0-0.1,0-0.1c0,0,0,0,0,0c0,0,0.1,0,0.1,0c0-0.1,0.1-0.2,0.1-0.3c0,0,0,0,0,0C20.7,13,20.8,12.9,20.9,12.9
			c-0.1,0.1-0.1,0.1,0,0.1L20.9,12.9C20.8,12.9,20.8,12.9,20.9,12.9"/>
		<path class="st0" d="M20.6,12.9C20.6,13,20.6,12.9,20.6,12.9C20.6,13,20.6,12.9,20.6,12.9"/>
		<path class="st0" d="M9.6,13L9.6,13C9.6,13,9.6,13,9.6,13L9.6,13"/>
		<path class="st0" d="M20.5,13.1L20.5,13.1L20.5,13.1z"/>
		<path class="st0" d="M9.6,13.2C9.6,13.2,9.6,13.2,9.6,13.2C9.6,13.2,9.6,13.2,9.6,13.2"/>
		<path class="st0" d="M9.5,13.3C9.6,13.3,9.6,13.3,9.5,13.3C9.6,13.3,9.6,13.3,9.5,13.3C9.6,13.3,9.6,13.3,9.5,13.3L9.5,13.3"/>
		<path class="st0" d="M20.4,13.3C20.4,13.3,20.5,13.3,20.4,13.3L20.4,13.3C20.4,13.3,20.5,13.4,20.4,13.3
			C20.4,13.3,20.4,13.3,20.4,13.3C20.4,13.3,20.4,13.3,20.4,13.3"/>
		<path class="st0" d="M20.4,13.4L20.4,13.4C20.4,13.4,20.4,13.4,20.4,13.4C20.4,13.4,20.4,13.4,20.4,13.4
			C20.4,13.4,20.4,13.4,20.4,13.4"/>
		<path class="st0" d="M20.3,13.5C20.3,13.5,20.3,13.5,20.3,13.5C20.3,13.5,20.3,13.5,20.3,13.5L20.3,13.5
			C20.3,13.5,20.3,13.5,20.3,13.5C20.3,13.5,20.3,13.5,20.3,13.5"/>
		<path class="st0" d="M9.5,13.5L9.5,13.5L9.5,13.5z"/>
		<path class="st0" d="M9.5,13.6L9.5,13.6C9.5,13.6,9.5,13.6,9.5,13.6"/>
		<path class="st0" d="M9.5,13.6C9.5,13.6,9.5,13.6,9.5,13.6C9.5,13.6,9.5,13.6,9.5,13.6"/>
		<path class="st0" d="M20.2,13.7L20.2,13.7L20.2,13.7z"/>
		<path class="st0" d="M19.7,14.4C19.7,14.4,19.7,14.4,19.7,14.4C19.7,14.4,19.7,14.4,19.7,14.4C19.7,14.4,19.7,14.4,19.7,14.4"/>
		<path class="st0" d="M19.7,14.5L19.7,14.5c0,0.1-0.1,0.1-0.1,0.1c0,0,0,0,0,0C19.6,14.5,19.6,14.5,19.7,14.5"/>
		<path class="st0" d="M9.3,14.6L9.3,14.6C9.3,14.6,9.3,14.7,9.3,14.6C9.3,14.7,9.3,14.7,9.3,14.6C9.3,14.7,9.3,14.6,9.3,14.6"/>
		<path class="st0" d="M9.1,15.7L9.1,15.7C9.2,15.7,9.2,15.7,9.1,15.7L9.1,15.7L9.1,15.7"/>
		<path class="st0" d="M8.9,16.9C8.9,16.9,8.9,16.9,8.9,16.9C8.9,16.9,8.9,16.9,8.9,16.9L8.9,16.9L8.9,16.9
			C8.8,16.9,8.8,16.9,8.9,16.9C8.8,16.9,8.8,16.9,8.9,16.9"/>
		<path class="st0" d="M8.8,17C8.8,17,8.8,17,8.8,17C8.8,17,8.8,17,8.8,17C8.8,17,8.8,17,8.8,17C8.8,17,8.8,17,8.8,17"/>
		<path class="st0" d="M8.7,17.3L8.7,17.3L8.7,17.3z"/>
		<path class="st0" d="M8.7,17.3C8.7,17.4,8.8,17.4,8.7,17.3C8.7,17.4,8.7,17.4,8.7,17.3"/>
		<path class="st0" d="M8.7,17.5L8.7,17.5c0,0.2-0.1,0.7-0.1,0.7C8.5,18,8.6,17.6,8.7,17.5"/>
		<path class="st0" d="M8.6,18.2C8.6,18.2,8.6,18.2,8.6,18.2C8.6,18.2,8.6,18.2,8.6,18.2"/>
		<path class="st0" d="M30.7,20C30.8,20,30.8,20,30.7,20C30.8,20,30.8,20,30.7,20"/>
		<path class="st0" d="M32.1,20.2L32.1,20.2L32.1,20.2z"/>
		<path class="st0" d="M34,20.3L34,20.3C34,20.3,34,20.3,34,20.3C34,20.3,33.9,20.3,34,20.3C33.9,20.3,33.9,20.3,34,20.3
			C33.9,20.3,33.9,20.3,34,20.3"/>
		<path class="st0" d="M34.3,20.3C34.3,20.3,34.3,20.3,34.3,20.3C34.3,20.3,34.3,20.3,34.3,20.3"/>
		<path class="st0" d="M33.9,20.3L33.9,20.3L33.9,20.3z"/>
		<path class="st0" d="M34.2,20.3C34.2,20.3,34.2,20.3,34.2,20.3L34.2,20.3C34.2,20.3,34.2,20.3,34.2,20.3L34.2,20.3"/>
		<path class="st0" d="M34,20.3L34,20.3L34,20.3z"/>
		<path class="st0" d="M32.4,20.4C32.5,20.4,32.5,20.4,32.4,20.4C32.5,20.5,32.5,20.5,32.4,20.4"/>
		<path class="st0" d="M33.2,20.5c0,0,0.1,0,0.1,0.1C33.3,20.6,33.3,20.5,33.2,20.5C33.2,20.5,33.2,20.5,33.2,20.5
			C33.2,20.5,33.2,20.5,33.2,20.5"/>
		<path class="st0" d="M34.4,20.5L34.4,20.5C34.4,20.6,34.4,20.6,34.4,20.5L34.4,20.5"/>
		<path class="st0" d="M34.7,20.5C34.7,20.6,34.7,20.6,34.7,20.5C34.7,20.6,34.7,20.6,34.7,20.5"/>
		<path class="st0" d="M34.6,20.6C34.7,20.6,34.7,20.6,34.6,20.6C34.7,20.6,34.7,20.6,34.6,20.6"/>
		<path class="st0" d="M33.2,20.6C33.2,20.6,33.2,20.6,33.2,20.6L33.2,20.6L33.2,20.6C33.2,20.6,33.2,20.6,33.2,20.6"/>
		<path class="st0" d="M35.3,20.6L35.3,20.6L35.3,20.6z"/>
		<path class="st0" d="M35.7,20.6C35.7,20.6,35.7,20.6,35.7,20.6C35.7,20.6,35.7,20.6,35.7,20.6"/>
		<path class="st0" d="M35.8,20.6C35.8,20.6,35.8,20.6,35.8,20.6C35.8,20.6,35.8,20.6,35.8,20.6"/>
		<path class="st0" d="M35.2,20.7L35.2,20.7C35.2,20.7,35.2,20.7,35.2,20.7L35.2,20.7"/>
		<path class="st0" d="M40.6,20.7L40.6,20.7C40.6,20.8,40.6,20.7,40.6,20.7L40.6,20.7"/>
		<path class="st0" d="M41.4,20.7L41.4,20.7L41.4,20.7z"/>
		<path class="st0" d="M39.6,20.7C39.6,20.7,39.6,20.7,39.6,20.7L39.6,20.7C39.6,20.7,39.6,20.7,39.6,20.7"/>
		<path class="st0" d="M39.9,20.8C40,20.8,40,20.8,39.9,20.8C40,20.8,40,20.8,39.9,20.8C39.9,20.8,39.9,20.8,39.9,20.8
			C39.9,20.8,39.9,20.8,39.9,20.8"/>
		<path class="st0" d="M40.9,20.8C40.9,20.8,40.9,20.8,40.9,20.8C40.9,20.8,40.9,20.8,40.9,20.8"/>
		<path class="st0" d="M36.9,20.8L36.9,20.8C36.9,20.8,36.9,20.8,36.9,20.8C36.9,20.8,36.9,20.8,36.9,20.8
			C36.9,20.8,36.9,20.8,36.9,20.8"/>
		<path class="st0" d="M37,20.8C37.1,20.8,37.1,20.8,37,20.8L37,20.8C37.1,20.8,37.1,20.8,37,20.8C37.1,20.8,37.1,20.8,37,20.8
			C37,20.8,37,20.8,37,20.8"/>
		<path class="st0" d="M37.1,20.8L37.1,20.8C37.1,20.8,37.1,20.8,37.1,20.8L37.1,20.8"/>
		<path class="st0" d="M37.4,20.8L37.4,20.8C37.4,20.8,37.4,20.8,37.4,20.8L37.4,20.8C37.4,20.8,37.4,20.8,37.4,20.8
			C37.4,20.8,37.4,20.8,37.4,20.8"/>
		<path class="st0" d="M37.5,20.8C37.5,20.8,37.5,20.8,37.5,20.8L37.5,20.8L37.5,20.8"/>
		<path class="st0" d="M39.2,20.8C39.2,20.8,39.2,20.8,39.2,20.8C39.2,20.8,39.2,20.8,39.2,20.8"/>
		<path class="st0" d="M37.5,20.8C37.5,20.8,37.5,20.8,37.5,20.8C37.5,20.8,37.5,20.8,37.5,20.8"/>
		<path class="st0" d="M38.9,20.8C38.9,20.8,38.9,20.8,38.9,20.8L38.9,20.8L38.9,20.8"/>
		<path class="st0" d="M39.6,20.8C39.7,20.8,39.7,20.8,39.6,20.8C39.6,20.8,39.6,20.8,39.6,20.8"/>
		<path class="st0" d="M39.4,20.8L39.4,20.8L39.4,20.8z"/>
		<path class="st0" d="M41.9,20.8C41.9,20.8,41.9,20.8,41.9,20.8L41.9,20.8C41.9,20.8,41.9,20.8,41.9,20.8"/>
		<path class="st0" d="M39.8,20.8C39.8,20.8,39.8,20.8,39.8,20.8C39.8,20.8,39.8,20.8,39.8,20.8"/>
		<path class="st0" d="M40.5,20.8L40.5,20.8C40.5,20.8,40.5,20.8,40.5,20.8L40.5,20.8"/>
		<path class="st0" d="M38.8,20.8C38.8,20.8,38.8,20.8,38.8,20.8L38.8,20.8L38.8,20.8"/>
		<path class="st0" d="M38.1,21C38.1,21,38.1,21,38.1,21C38.1,21,38.1,21,38.1,21"/>
		<path class="st0" d="M38.2,21C38.2,21,38.2,21,38.2,21C38.2,21,38.2,21,38.2,21L38.2,21"/>
		<path class="st0" d="M13.9,21C13.9,21,13.9,21,13.9,21L13.9,21L13.9,21"/>
		<path class="st0" d="M38.2,21C38.2,21,38.2,21,38.2,21C38.2,21,38.2,21,38.2,21"/>
		<path class="st0" d="M41.3,21.1C41.3,21.1,41.3,21.1,41.3,21.1L41.3,21.1C41.3,21.1,41.3,21.1,41.3,21.1"/>
		<path class="st0" d="M41.8,21.2C41.8,21.2,41.8,21.2,41.8,21.2C41.8,21.2,41.8,21.2,41.8,21.2C41.8,21.2,41.8,21.2,41.8,21.2"/>
		<path class="st0" d="M41.7,21.2C41.7,21.2,41.7,21.2,41.7,21.2C41.7,21.2,41.7,21.2,41.7,21.2C41.7,21.2,41.7,21.2,41.7,21.2"/>
		<path class="st0" d="M42,21.2L42,21.2L42,21.2z"/>
		<path class="st0" d="M41.5,21.2L41.5,21.2L41.5,21.2z"/>
		<path class="st0" d="M42,21.2C42,21.2,42,21.2,42,21.2L42,21.2L42,21.2C42,21.2,42,21.2,42,21.2"/>
		<path class="st0" d="M41.1,21.2L41.1,21.2L41.1,21.2z"/>
		<path class="st0" d="M42.1,21.2C42.1,21.2,42.1,21.2,42.1,21.2C42.1,21.2,42.1,21.2,42.1,21.2"/>
		<path class="st0" d="M42.1,21.3C42.1,21.3,42.1,21.3,42.1,21.3L42.1,21.3C42.1,21.3,42.1,21.3,42.1,21.3
			C42.1,21.3,42.1,21.3,42.1,21.3C42.1,21.3,42.1,21.3,42.1,21.3C42.1,21.3,42.1,21.3,42.1,21.3"/>
		<path class="st0" d="M41.6,21.3C41.6,21.3,41.6,21.3,41.6,21.3C41.6,21.3,41.6,21.3,41.6,21.3"/>
		<path class="st0" d="M41.4,21.3C41.4,21.3,41.4,21.3,41.4,21.3C41.4,21.3,41.4,21.3,41.4,21.3L41.4,21.3"/>
		<path class="st0" d="M41.6,21.3C41.6,21.3,41.7,21.3,41.6,21.3C41.7,21.3,41.6,21.3,41.6,21.3L41.6,21.3"/>
		<path class="st0" d="M41.5,21.3C41.5,21.3,41.6,21.3,41.5,21.3C41.6,21.3,41.5,21.3,41.5,21.3"/>
		<path class="st0" d="M41.9,21.3L41.9,21.3C42,21.3,41.9,21.3,41.9,21.3C42,21.3,42,21.3,41.9,21.3c0,0.1,0,0.1,0,0.1
			C41.8,21.4,41.8,21.4,41.9,21.3L41.9,21.3C41.8,21.3,41.8,21.3,41.9,21.3C41.9,21.3,41.9,21.3,41.9,21.3"/>
		<path class="st0" d="M41.6,21.3C41.6,21.3,41.6,21.3,41.6,21.3L41.6,21.3C41.6,21.3,41.6,21.3,41.6,21.3"/>
		<path class="st0" d="M42.3,21.3C42.3,21.3,42.3,21.3,42.3,21.3c0.1,0,0.1,0,0.2,0c0,0,0,0,0,0C42.4,21.4,42.3,21.4,42.3,21.3
			C42.3,21.4,42.3,21.4,42.3,21.3C42.3,21.4,42.3,21.4,42.3,21.3C42.2,21.4,42.3,21.4,42.3,21.3L42.3,21.3
			C42.2,21.4,42.2,21.4,42.3,21.3C42.2,21.4,42.3,21.3,42.3,21.3"/>
		<path class="st0" d="M13.8,21.3C13.8,21.4,13.8,21.4,13.8,21.3C13.8,21.4,13.8,21.4,13.8,21.3"/>
		<path class="st0" d="M42.5,21.4C42.5,21.4,42.5,21.4,42.5,21.4C42.5,21.4,42.5,21.4,42.5,21.4C42.5,21.4,42.5,21.4,42.5,21.4"/>
		<path class="st0" d="M42.2,21.4C42.2,21.4,42.2,21.4,42.2,21.4L42.2,21.4"/>
		<path class="st0" d="M13.7,21.5C13.7,21.5,13.7,21.5,13.7,21.5C13.7,21.5,13.7,21.5,13.7,21.5"/>
		<path class="st0" d="M41,21.5C41,21.6,41,21.6,41,21.5C41,21.6,41,21.6,41,21.5L41,21.5C41,21.6,41,21.6,41,21.5
			C41,21.6,41,21.6,41,21.5"/>
		<path class="st0" d="M40.7,21.6L40.7,21.6L40.7,21.6C40.7,21.7,40.7,21.7,40.7,21.6C40.7,21.6,40.7,21.6,40.7,21.6"/>
		<path class="st0" d="M13.6,21.7C13.6,21.7,13.6,21.7,13.6,21.7C13.6,21.7,13.6,21.7,13.6,21.7"/>
		<path class="st0" d="M39.9,21.7C39.9,21.7,39.9,21.7,39.9,21.7C39.9,21.7,39.9,21.7,39.9,21.7C39.9,21.7,39.9,21.7,39.9,21.7"/>
		<path class="st0" d="M39.8,21.7L39.8,21.7L39.8,21.7z"/>
		<path class="st0" d="M13.6,21.7C13.6,21.7,13.6,21.7,13.6,21.7c0,0.1,0,0.1,0,0.1h0L13.6,21.7C13.6,21.8,13.6,21.8,13.6,21.7"/>
		<path class="st0" d="M16.2,21.7L16.2,21.7C16.2,21.7,16.2,21.8,16.2,21.7C16.2,21.8,16.2,21.8,16.2,21.7
			C16.2,21.7,16.2,21.7,16.2,21.7"/>
		<path class="st0" d="M40.2,21.8L40.2,21.8L40.2,21.8z"/>
		<path class="st0" d="M16.3,21.8C16.3,21.8,16.3,21.8,16.3,21.8C16.3,21.8,16.3,21.8,16.3,21.8C16.3,21.8,16.3,21.8,16.3,21.8"/>
		<path class="st0" d="M40.1,21.8c0.1,0,0.1,0,0.2,0c0,0,0,0,0,0C40.2,21.8,40.2,21.9,40.1,21.8C40.1,21.8,40.2,21.8,40.1,21.8
			C40.1,21.8,40.1,21.8,40.1,21.8"/>
		<path class="st0" d="M40,21.8C40,21.8,40,21.8,40,21.8C40,21.8,40,21.8,40,21.8"/>
		<path class="st0" d="M40.3,21.8C40.3,21.8,40.3,21.8,40.3,21.8C40.3,21.8,40.3,21.8,40.3,21.8"/>
		<path class="st0" d="M39.9,21.8L39.9,21.8L39.9,21.8C39.9,21.8,39.9,21.8,39.9,21.8L39.9,21.8"/>
		<path class="st0" d="M16.4,21.8C16.5,21.9,16.4,21.8,16.4,21.8L16.4,21.8C16.4,21.9,16.4,21.9,16.4,21.8
			C16.4,21.8,16.4,21.8,16.4,21.8"/>
		<path class="st0" d="M39.3,21.8L39.3,21.8L39.3,21.8C39.3,21.9,39.3,21.9,39.3,21.8L39.3,21.8"/>
		<path class="st0" d="M13.5,21.9C13.5,21.9,13.5,21.9,13.5,21.9C13.5,21.9,13.5,21.9,13.5,21.9L13.5,21.9
			C13.5,21.9,13.5,21.9,13.5,21.9"/>
		<path class="st0" d="M13.4,22L13.4,22C13.4,22,13.4,22,13.4,22C13.4,22,13.4,22,13.4,22"/>
		<path class="st0" d="M38.7,22L38.7,22L38.7,22C38.7,22,38.7,22,38.7,22"/>
		<path class="st0" d="M38.7,22L38.7,22L38.7,22C38.7,22,38.7,22,38.7,22"/>
		<path class="st0" d="M38.8,22L38.8,22L38.8,22z"/>
		<path class="st0" d="M38.8,22L38.8,22L38.8,22z"/>
		<path class="st0" d="M38.7,22C38.8,22,38.7,22,38.7,22C38.7,22,38.7,22,38.7,22"/>
		<path class="st0" d="M13.5,22.1C13.5,22.1,13.5,22.1,13.5,22.1C13.5,22.1,13.5,22.1,13.5,22.1"/>
		<path class="st0" d="M17,22.1C17.1,22.2,17.1,22.2,17,22.1C17.1,22.2,17,22.2,17,22.1C17,22.2,17,22.1,17,22.1"/>
		<path class="st0" d="M17.1,22.2C17.1,22.2,17.1,22.2,17.1,22.2L17.1,22.2L17.1,22.2"/>
		<path class="st0" d="M17.2,22.2c0,0,0.1,0,0.1,0c0,0,0,0,0,0C17.2,22.2,17.2,22.2,17.2,22.2C17.2,22.2,17.2,22.2,17.2,22.2"/>
		<path class="st0" d="M13.3,22.2L13.3,22.2C13.3,22.2,13.3,22.2,13.3,22.2L13.3,22.2"/>
		<path class="st0" d="M17.3,22.2C17.3,22.2,17.3,22.2,17.3,22.2C17.4,22.2,17.3,22.2,17.3,22.2C17.3,22.2,17.3,22.2,17.3,22.2"/>
		<path class="st0" d="M17.4,22.3C17.4,22.3,17.4,22.3,17.4,22.3C17.4,22.3,17.4,22.3,17.4,22.3C17.4,22.3,17.4,22.3,17.4,22.3"/>
		<path class="st0" d="M38.8,22.3L38.8,22.3C38.8,22.3,38.8,22.3,38.8,22.3C38.8,22.3,38.8,22.3,38.8,22.3"/>
		<path class="st0" d="M39,22.3L39,22.3L39,22.3z"/>
		<path class="st0" d="M38.7,22.3L38.7,22.3C38.7,22.3,38.7,22.3,38.7,22.3C38.7,22.3,38.7,22.3,38.7,22.3"/>
		<path class="st0" d="M13.3,22.3L13.3,22.3C13.3,22.3,13.3,22.3,13.3,22.3C13.3,22.3,13.3,22.3,13.3,22.3"/>
		<path class="st0" d="M13.4,22.4C13.4,22.4,13.4,22.4,13.4,22.4c0,0.1,0,0.1,0,0.1C13.3,22.5,13.3,22.5,13.4,22.4
			C13.3,22.4,13.4,22.4,13.4,22.4"/>
		<path class="st0" d="M17.6,22.4L17.6,22.4C17.6,22.4,17.6,22.4,17.6,22.4L17.6,22.4"/>
		<path class="st0" d="M38.1,22.4C38.1,22.4,38.1,22.4,38.1,22.4C38.1,22.4,38.1,22.4,38.1,22.4C38.1,22.4,38.1,22.4,38.1,22.4
			L38.1,22.4C38.1,22.4,38.1,22.4,38.1,22.4"/>
		<path class="st0" d="M17.6,22.4C17.7,22.4,17.7,22.4,17.6,22.4L17.6,22.4C17.6,22.4,17.6,22.4,17.6,22.4"/>
		<path class="st0" d="M37.9,22.4L37.9,22.4C37.9,22.4,37.9,22.4,37.9,22.4"/>
		<path class="st0" d="M38,22.4L38,22.4C38,22.4,38,22.4,38,22.4C38,22.4,38,22.4,38,22.4C38,22.4,38,22.4,38,22.4"/>
		<path class="st0" d="M38.2,22.4C38.2,22.4,38.2,22.4,38.2,22.4L38.2,22.4C38.2,22.4,38.2,22.4,38.2,22.4"/>
		<path class="st0" d="M38.5,22.4L38.5,22.4C38.5,22.4,38.5,22.4,38.5,22.4L38.5,22.4"/>
		<path class="st0" d="M38.2,22.4C38.2,22.4,38.2,22.4,38.2,22.4L38.2,22.4L38.2,22.4L38.2,22.4C38.2,22.4,38.2,22.4,38.2,22.4"/>
		<path class="st0" d="M38,22.4C38,22.4,38,22.4,38,22.4C38.1,22.4,38.1,22.4,38,22.4C38,22.4,38,22.4,38,22.4"/>
		<path class="st0" d="M38.5,22.4C38.5,22.4,38.5,22.4,38.5,22.4C38.5,22.4,38.5,22.5,38.5,22.4C38.5,22.4,38.5,22.4,38.5,22.4
			C38.5,22.4,38.5,22.4,38.5,22.4"/>
		<path class="st0" d="M13.3,22.4C13.3,22.4,13.3,22.4,13.3,22.4C13.3,22.4,13.3,22.4,13.3,22.4"/>
		<path class="st0" d="M17.7,22.4C17.7,22.4,17.7,22.5,17.7,22.4C17.7,22.5,17.7,22.5,17.7,22.4"/>
		<path class="st0" d="M38.2,22.5L38.2,22.5C38.3,22.5,38.3,22.5,38.2,22.5L38.2,22.5C38.2,22.5,38.2,22.5,38.2,22.5
			C38.2,22.5,38.2,22.5,38.2,22.5"/>
		<path class="st0" d="M38.2,22.5C38.2,22.5,38.2,22.5,38.2,22.5C38.2,22.5,38.2,22.5,38.2,22.5"/>
		<path class="st0" d="M38.4,22.5L38.4,22.5L38.4,22.5z"/>
		<path class="st0" d="M38.2,22.5C38.2,22.5,38.2,22.5,38.2,22.5C38.2,22.5,38.2,22.5,38.2,22.5"/>
		<path class="st0" d="M37.6,22.5C37.6,22.5,37.6,22.5,37.6,22.5C37.6,22.5,37.6,22.5,37.6,22.5"/>
		<path class="st0" d="M38.1,22.5L38.1,22.5L38.1,22.5z"/>
		<path class="st0" d="M38,22.5C38,22.5,38,22.5,38,22.5C38,22.5,38,22.5,38,22.5"/>
		<path class="st0" d="M37.6,22.5C37.6,22.5,37.6,22.5,37.6,22.5L37.6,22.5C37.6,22.5,37.6,22.5,37.6,22.5
			C37.6,22.5,37.6,22.5,37.6,22.5"/>
		<path class="st0" d="M37.1,22.5L37.1,22.5C37.1,22.5,37.1,22.5,37.1,22.5L37.1,22.5"/>
		<path class="st0" d="M37.2,22.5C37.2,22.5,37.2,22.5,37.2,22.5C37.2,22.6,37.2,22.6,37.2,22.5L37.2,22.5L37.2,22.5
			C37.1,22.6,37.2,22.5,37.2,22.5"/>
		<path class="st0" d="M37.3,22.5C37.3,22.6,37.3,22.6,37.3,22.5C37.3,22.6,37.3,22.5,37.3,22.5"/>
		<path class="st0" d="M37.5,22.5C37.5,22.6,37.5,22.5,37.5,22.5L37.5,22.5L37.5,22.5"/>
		<path class="st0" d="M13.3,22.6C13.3,22.6,13.3,22.6,13.3,22.6L13.3,22.6C13.3,22.6,13.3,22.6,13.3,22.6
			C13.3,22.6,13.3,22.6,13.3,22.6C13.3,22.6,13.3,22.6,13.3,22.6"/>
		<path class="st0" d="M37.6,22.6C37.6,22.6,37.6,22.6,37.6,22.6C37.6,22.6,37.6,22.6,37.6,22.6"/>
		<path class="st0" d="M37.7,22.6C37.7,22.6,37.7,22.6,37.7,22.6C37.7,22.6,37.7,22.6,37.7,22.6"/>
		<path class="st0" d="M37.5,22.6L37.5,22.6L37.5,22.6z"/>
		<path class="st0" d="M38.1,22.6C38.1,22.6,38.1,22.7,38.1,22.6C38.1,22.7,38.1,22.7,38.1,22.6C38.1,22.7,38.1,22.6,38.1,22.6"/>
		<path class="st0" d="M37.5,22.6C37.5,22.7,37.5,22.7,37.5,22.6C37.5,22.7,37.5,22.7,37.5,22.6"/>
		<path class="st0" d="M37.6,22.7C37.6,22.7,37.6,22.7,37.6,22.7L37.6,22.7C37.6,22.7,37.6,22.7,37.6,22.7"/>
		<path class="st0" d="M37.7,22.7L37.7,22.7C37.7,22.7,37.7,22.7,37.7,22.7C37.7,22.7,37.7,22.7,37.7,22.7"/>
		<path class="st0" d="M37.7,22.7C37.7,22.7,37.7,22.7,37.7,22.7C37.7,22.7,37.7,22.7,37.7,22.7L37.7,22.7"/>
		<path class="st0" d="M37.8,22.7C37.8,22.7,37.8,22.7,37.8,22.7C37.8,22.7,37.8,22.7,37.8,22.7"/>
		<path class="st0" d="M37.3,22.7C37.3,22.7,37.3,22.7,37.3,22.7L37.3,22.7C37.3,22.7,37.3,22.7,37.3,22.7"/>
		<path class="st0" d="M18.1,22.7C18.2,22.7,18.2,22.7,18.1,22.7C18.2,22.7,18.2,22.7,18.1,22.7C18.2,22.7,18.2,22.7,18.1,22.7
			C18.1,22.7,18.1,22.7,18.1,22.7"/>
		<path class="st0" d="M37.2,22.7C37.2,22.7,37.2,22.7,37.2,22.7C37.2,22.7,37.2,22.7,37.2,22.7C37.2,22.7,37.2,22.7,37.2,22.7"/>
		<path class="st0" d="M37.6,22.7C37.6,22.7,37.6,22.7,37.6,22.7C37.6,22.7,37.6,22.7,37.6,22.7"/>
		<path class="st0" d="M37.1,22.7C37.1,22.7,37.1,22.7,37.1,22.7L37.1,22.7C37,22.7,37,22.7,37.1,22.7C37,22.7,37,22.7,37.1,22.7"/>
		<path class="st0" d="M13.4,22.7C13.4,22.7,13.4,22.7,13.4,22.7L13.4,22.7C13.4,22.7,13.4,22.7,13.4,22.7
			C13.4,22.7,13.4,22.7,13.4,22.7"/>
		<path class="st0" d="M37.1,22.7C37.1,22.7,37.1,22.7,37.1,22.7L37.1,22.7L37.1,22.7C37.1,22.7,37.1,22.7,37.1,22.7"/>
		<path class="st0" d="M13.4,22.8C13.4,22.8,13.4,22.8,13.4,22.8C13.4,22.8,13.4,22.8,13.4,22.8C13.4,22.8,13.4,22.8,13.4,22.8"/>
		<path class="st0" d="M18.3,22.8c0,0,0.1,0,0.1,0C18.4,22.9,18.4,22.9,18.3,22.8C18.4,22.9,18.4,22.9,18.3,22.8L18.3,22.8"/>
		<path class="st0" d="M13.3,22.9C13.3,22.9,13.3,22.9,13.3,22.9C13.3,22.9,13.3,22.9,13.3,22.9"/>
		<path class="st0" d="M18.5,22.9L18.5,22.9L18.5,22.9C18.5,22.9,18.5,22.9,18.5,22.9C18.5,22.9,18.5,22.9,18.5,22.9"/>
		<path class="st0" d="M13.3,22.9C13.3,22.9,13.3,22.9,13.3,22.9C13.3,22.9,13.3,22.9,13.3,22.9"/>
		<path class="st0" d="M37.3,23c0.1,0,0.2,0,0.2,0c0,0,0,0,0,0c0,0-0.1,0-0.1,0c0,0,0,0,0-0.1c0,0-0.3,0.1-0.4,0
			C37.2,23,37.3,23,37.3,23"/>
		<path class="st0" d="M37.6,23L37.6,23C37.6,23,37.6,23,37.6,23L37.6,23"/>
		<path class="st0" d="M18.6,23C18.6,23,18.6,23,18.6,23C18.6,23,18.6,23,18.6,23"/>
		<path class="st0" d="M36.6,23C36.6,23,36.6,23,36.6,23C36.6,23,36.6,23,36.6,23"/>
		<path class="st0" d="M37.7,23C37.7,23,37.7,23,37.7,23C37.7,23,37.7,23,37.7,23"/>
		<path class="st0" d="M36.9,23C36.9,23,36.9,23,36.9,23C37,23,37,23,36.9,23C36.9,23.1,36.9,23.1,36.9,23
			C36.9,23.1,36.9,23.1,36.9,23L36.9,23C36.9,23,36.9,23,36.9,23"/>
		<path class="st0" d="M37.1,23L37.1,23C37.1,23,37.1,23,37.1,23C37.1,23,37.1,23.1,37.1,23C37.1,23.1,37,23,37.1,23
			C37,23,37,23,37.1,23"/>
		<path class="st0" d="M37.9,23L37.9,23C37.9,23,37.9,23,37.9,23C37.9,23,37.9,23,37.9,23"/>
		<path class="st0" d="M37.8,23C37.8,23,37.8,23,37.8,23L37.8,23C37.9,23.1,37.8,23.1,37.8,23L37.8,23C37.8,23.1,37.8,23,37.8,23"/>
		<path class="st0" d="M36.8,23L36.8,23C36.8,23.1,36.8,23,36.8,23C36.8,23,36.8,23,36.8,23"/>
		<path class="st0" d="M18.7,23c0,0,0.1,0,0.1,0C18.8,23.1,18.8,23.1,18.7,23C18.8,23.1,18.8,23.1,18.7,23
			C18.7,23.1,18.7,23.1,18.7,23"/>
		<path class="st0" d="M18.6,23.1L18.6,23.1C18.6,23.1,18.6,23.1,18.6,23.1"/>
		<path class="st0" d="M37.6,23.1C37.6,23.1,37.6,23.1,37.6,23.1C37.6,23.1,37.6,23.1,37.6,23.1"/>
		<path class="st0" d="M36.5,23.1L36.5,23.1C36.5,23.2,36.5,23.2,36.5,23.1C36.5,23.2,36.5,23.1,36.5,23.1"/>
		<path class="st0" d="M35.9,23.3L35.9,23.3C36,23.4,36,23.4,35.9,23.3C35.9,23.3,35.9,23.4,35.9,23.3
			C35.9,23.3,35.9,23.3,35.9,23.3"/>
		<path class="st0" d="M19.2,23.3C19.2,23.4,19.2,23.4,19.2,23.3C19.2,23.4,19.2,23.4,19.2,23.3C19.2,23.4,19.2,23.3,19.2,23.3"/>
		<path class="st0" d="M35.9,23.4C35.9,23.4,35.9,23.4,35.9,23.4C35.9,23.4,35.9,23.4,35.9,23.4"/>
		<path class="st0" d="M19.3,23.4C19.3,23.4,19.3,23.4,19.3,23.4L19.3,23.4C19.3,23.4,19.3,23.4,19.3,23.4"/>
		<path class="st0" d="M35.5,23.4C35.5,23.4,35.5,23.4,35.5,23.4C35.5,23.5,35.5,23.5,35.5,23.4L35.5,23.4
			C35.5,23.5,35.5,23.5,35.5,23.4C35.5,23.5,35.5,23.4,35.5,23.4"/>
		<path class="st0" d="M19.4,23.5C19.4,23.5,19.4,23.5,19.4,23.5C19.4,23.5,19.4,23.5,19.4,23.5"/>
		<path class="st0" d="M19.5,23.5C19.5,23.5,19.5,23.5,19.5,23.5L19.5,23.5L19.5,23.5C19.5,23.5,19.5,23.5,19.5,23.5"/>
		<path class="st0" d="M35.5,23.5C35.5,23.5,35.5,23.5,35.5,23.5C35.5,23.5,35.5,23.5,35.5,23.5"/>
		<path class="st0" d="M37.4,23.7L37.4,23.7L37.4,23.7z"/>
		<path class="st0" d="M20.2,23.8c0,0,0,0.1,0,0.1h0C20.2,23.8,20.2,23.8,20.2,23.8"/>
		<path class="st0" d="M37.3,23.8C37.4,23.8,37.4,23.8,37.3,23.8C37.4,23.8,37.3,23.8,37.3,23.8C37.3,23.8,37.3,23.8,37.3,23.8
			C37.3,23.8,37.3,23.8,37.3,23.8"/>
		<path class="st0" d="M37.2,23.8C37.2,23.8,37.2,23.8,37.2,23.8L37.2,23.8c0,0-0.3,0.1-0.3,0.1c0,0,0,0,0,0c0,0,0,0,0,0
			C37,23.9,37.1,23.8,37.2,23.8"/>
		<path class="st0" d="M20.3,23.9C20.3,23.9,20.3,23.9,20.3,23.9C20.3,23.9,20.3,23.9,20.3,23.9L20.3,23.9
			C20.3,23.9,20.3,23.9,20.3,23.9"/>
		<path class="st0" d="M36.6,23.9C36.6,23.9,36.6,23.9,36.6,23.9C36.6,23.9,36.6,23.9,36.6,23.9L36.6,23.9"/>
		<path class="st0" d="M36.7,23.9C36.7,23.9,36.7,23.9,36.7,23.9L36.7,23.9L36.7,23.9"/>
		<path class="st0" d="M36.5,23.9L36.5,23.9L36.5,23.9C36.5,24,36.5,24,36.5,23.9C36.5,24,36.5,24,36.5,23.9
			C36.5,23.9,36.5,23.9,36.5,23.9C36.5,23.9,36.5,23.9,36.5,23.9"/>
		<path class="st0" d="M36.1,24C36.2,24,36.2,24,36.1,24C36.2,24,36.2,24,36.1,24C36.1,24,36.1,24,36.1,24C36.1,24,36.1,24,36.1,24"
			/>
		<path class="st0" d="M36.1,24C36.1,24,36.1,24,36.1,24C36.1,24,36.1,24,36.1,24C36.1,24,36.1,24,36.1,24"/>
		<path class="st0" d="M35.6,24.1L35.6,24.1C35.6,24.1,35.6,24.1,35.6,24.1C35.6,24.1,35.6,24.1,35.6,24.1"/>
		<path class="st0" d="M35.5,24.1C35.5,24.1,35.5,24.1,35.5,24.1L35.5,24.1C35.4,24.1,35.4,24.1,35.5,24.1"/>
		<path class="st0" d="M13,24.2L13,24.2C13,24.2,13,24.2,13,24.2C13,24.2,13,24.2,13,24.2L13,24.2"/>
		<path class="st0" d="M12.9,24.2C13,24.2,13,24.2,12.9,24.2L12.9,24.2L12.9,24.2C12.9,24.2,12.9,24.2,12.9,24.2"/>
		<path class="st0" d="M7.5,24.3L7.5,24.3L7.5,24.3z"/>
		<path class="st0" d="M22.2,24.5C22.2,24.5,22.2,24.5,22.2,24.5C22.2,24.5,22.2,24.5,22.2,24.5C22.2,24.5,22.2,24.5,22.2,24.5"/>
		<path class="st0" d="M21.9,24.5C22,24.5,22,24.5,21.9,24.5C22,24.5,22,24.5,21.9,24.5"/>
		<path class="st0" d="M31.7,25.3C31.8,25.3,31.8,25.3,31.7,25.3C31.8,25.3,31.8,25.3,31.7,25.3L31.7,25.3"/>
		<path class="st0" d="M23.5,25.5C23.5,25.5,23.5,25.5,23.5,25.5C23.5,25.5,23.5,25.5,23.5,25.5L23.5,25.5
			C23.4,25.5,23.5,25.5,23.5,25.5"/>
		<path class="st0" d="M31.5,25.6L31.5,25.6C31.5,25.6,31.5,25.6,31.5,25.6C31.5,25.6,31.5,25.6,31.5,25.6"/>
		<path class="st0" d="M31.2,25.6L31.2,25.6L31.2,25.6z"/>
		<path class="st0" d="M24,25.8C24,25.9,24,25.9,24,25.8L24,25.8C24,25.9,24,25.9,24,25.8C24,25.9,24,25.9,24,25.8
			C24,25.9,24,25.9,24,25.8"/>
		<path class="st0" d="M30.8,26.1C30.8,26.1,30.9,26.1,30.8,26.1L30.8,26.1L30.8,26.1"/>
		<path class="st0" d="M24.9,26.5C24.9,26.5,24.9,26.5,24.9,26.5C24.9,26.5,24.9,26.5,24.9,26.5"/>
		<path class="st0" d="M26.1,27.4L26.1,27.4C26.1,27.4,26.1,27.4,26.1,27.4C26.1,27.4,26.1,27.4,26.1,27.4"/>
	</g>
	<g>
		<g>
			<path class="st0" d="M42.4,31.6L42,32.9h0.8L42.4,31.6L42.4,31.6z M21.7,31.2c-0.6,0-1.1,0.5-1.1,1.1c0,0.7,0.5,1.3,1.1,1.3
				c0.6,0,1.1-0.5,1.1-1.3C22.7,31.7,22.3,31.2,21.7,31.2z M25.7,31.1L25.7,31.1l-0.1,1h0.1c0.3,0,0.7-0.1,0.7-0.5
				C26.3,31.2,26,31.1,25.7,31.1z M7.8,31.6l-0.4,1.3h0.8L7.8,31.6L7.8,31.6z M0.1,28.8v7.1h47.7v-7.1H0.1z M4.2,34.5l-1.3-1.8h0
				v1.8h-1v-4.2h1V32h0l1.2-1.7h1.2l-1.5,2l1.6,2.2H4.2z M8.7,34.5l-0.2-0.7H7.1l-0.3,0.7h-1l1.5-4.2h1.1l1.4,4.2H8.7z M12.7,34.2
				c-0.3,0.3-0.7,0.4-1.1,0.4c-0.5,0-0.9-0.2-1.3-0.5l0.4-0.9c0.2,0.2,0.5,0.4,0.9,0.4c0.2,0,0.5-0.1,0.5-0.4c0-0.3-0.4-0.4-0.6-0.5
				c-0.6-0.2-1-0.4-1-1.2c0-0.9,0.5-1.4,1.3-1.4c0.4,0,0.9,0.1,1.2,0.3l-0.4,0.8c-0.2-0.2-0.4-0.3-0.7-0.3c-0.2,0-0.4,0.1-0.4,0.4
				c0,0.2,0.3,0.3,0.4,0.4l0.3,0.1c0.5,0.2,0.9,0.5,0.9,1.2C13.1,33.5,13,33.9,12.7,34.2z M14.9,34.5h-1v-4.2h1V34.5z M18.2,34.5
				l-1.3-1.8h0v1.8h-1v-4.2h1V32h0l1.2-1.7h1.2l-1.5,2l1.6,2.2H18.2z M21.7,34.6c-1.2,0-2.1-1-2.1-2.3c0-1.3,1-2.2,2.1-2.2
				c1.1,0,2.1,0.9,2.1,2.2C23.8,33.7,22.9,34.6,21.7,34.6z M26.5,34.5l-0.9-1.6h0v1.6h-1v-4.2h1.5c0.7,0,1.3,0.4,1.3,1.3
				c0,0.6-0.3,1.1-0.8,1.2l1.2,1.7H26.5z M32.2,34.5h-1l-1.8-2.6h0v2.6h-1v-4.2h1l1.8,2.6h0v-2.6h1V34.5z M35.6,31.2h-0.8v3.3h-1
				v-3.3h-0.8v-0.9h2.6V31.2z M39.7,34.5h-1v-1.7h-1.4v1.7h-1v-4.2h1v1.6h1.4v-1.6h1V34.5z M43.3,34.5l-0.2-0.7h-1.4l-0.3,0.7h-1
				l1.5-4.2h1.1l1.4,4.2H43.3z M46.1,34.5h-1v-4.2h1V34.5z"/>
		</g>
	</g>
</g>
</svg>
