<?xml version="1.0" encoding="utf-8"?>
<!-- Generator: Adobe Illustrator 27.2.0, SVG Export Plug-In . SVG Version: 6.00 Build 0)  -->
<svg version="1.1" id="Layer_1" xmlns="http://www.w3.org/2000/svg" xmlns:xlink="http://www.w3.org/1999/xlink" x="0px" y="0px"
	 viewBox="0 0 48 48" style="enable-background:new 0 0 48 48;" xml:space="preserve">
<style type="text/css">
	.st0{fill:#00A94F;}
</style>
<g>
	<path class="st0" d="M12.8,22.7c-7,0-12.6,5.7-12.6,12.6s5.7,12.6,12.6,12.6s12.6-5.7,12.6-12.6S19.7,22.7,12.8,22.7z M18.4,33.8
		l-6.5,6.5c-0.3,0.3-0.6,0.4-1,0.4s-0.7-0.1-1-0.4L7,37.5c-0.5-0.5-0.5-1.4,0-2c0.5-0.5,1.4-0.5,2,0l1.8,1.8l5.6-5.6
		c0.5-0.5,1.4-0.5,2,0C18.9,32.3,18.9,33.2,18.4,33.8L18.4,33.8z"/>
	<path class="st0" d="M37.1,12.2c-0.8,0-1.4-0.6-1.4-1.4V0.1H15.6c-2.3,0-4.2,1.9-4.2,4.2V20c0.5,0,0.9-0.1,1.4-0.1
		c4.8,0,9.1,2.2,11.9,5.6h15.2c0.8,0,1.4,0.6,1.4,1.4s-0.6,1.4-1.4,1.4H26.5c0.9,1.7,1.4,3.6,1.6,5.6h11.8c0.8,0,1.4,0.6,1.4,1.4
		c0,0.8-0.6,1.4-1.4,1.4H28.1c-0.4,4.6-2.9,8.7-6.5,11.2h22c2.3,0,4.2-1.9,4.2-4.2V12.2H37.1z M39.9,19.9H19.3
		c-0.8,0-1.4-0.6-1.4-1.4s0.6-1.4,1.4-1.4h20.6c0.8,0,1.4,0.6,1.4,1.4C41.3,19.3,40.7,19.9,39.9,19.9z"/>
	<path class="st0" d="M38.5,0.9v8.5H47L38.5,0.9z"/>
</g>
</svg>
