<?xml version="1.0" encoding="utf-8"?>
<!-- Generator: Adobe Illustrator 27.2.0, SVG Export Plug-In . SVG Version: 6.00 Build 0)  -->
<svg version="1.1" id="Layer_1" xmlns="http://www.w3.org/2000/svg" xmlns:xlink="http://www.w3.org/1999/xlink" x="0px" y="0px"
	 viewBox="0 0 48 48" style="enable-background:new 0 0 48 48;" xml:space="preserve">
<style type="text/css">
	.st0{fill:#00A94F;}
</style>
<g>
	<circle class="st0" cx="18.1" cy="10.2" r="9.9"/>
	<path class="st0" d="M29.1,24.4C27.1,23.8,27,24,9.7,24c-5.2,0-9.4,4.2-9.4,9.4v6.9c0,0.8,0.7,1.5,1.5,1.5H20v-6.4
		c0-3.7,2.8-6.8,6.3-7.3C26.9,26.5,27.9,25.3,29.1,24.4z"/>
	<path class="st0" d="M25,33l10.9,5.7L46.7,33c-0.6-0.6-1.5-1.1-2.5-1.1h-2.5v-1.5c0-1.9-1.6-3.5-3.5-3.5h-4.9
		c-1.9,0-3.5,1.6-3.5,3.5v1.5h-2.5C26.5,31.9,25.6,32.3,25,33z M32.9,30.4c0-0.3,0.2-0.5,0.5-0.5h4.9c0.3,0,0.5,0.2,0.5,0.5v1.5
		h-5.9V30.4z"/>
	<path class="st0" d="M36.5,41.6c-0.4,0.2-0.9,0.2-1.4,0L24,35.8v8.5c0,1.9,1.6,3.5,3.5,3.5h16.8c1.9,0,3.5-1.6,3.5-3.5v-8.5
		L36.5,41.6z"/>
</g>
</svg>
