<?xml version="1.0" encoding="utf-8"?>
<!-- Generator: Adobe Illustrator 27.2.0, SVG Export Plug-In . SVG Version: 6.00 Build 0)  -->
<svg version="1.1" id="Layer_1" xmlns="http://www.w3.org/2000/svg" xmlns:xlink="http://www.w3.org/1999/xlink" x="0px" y="0px"
	 viewBox="0 0 48 48" style="enable-background:new 0 0 48 48;" xml:space="preserve">
<style type="text/css">
	.st0{fill:#00A94F;}
</style>
<g>
	<path class="st0" d="M47.1,12.2c-0.1-1.8-1.6-3.3-3.4-3.4L31.2,7.9c-0.5,0-0.9,0-1.4,0.2c0.7,1.8,1.1,3.8,1.1,5.9
		c0,9.4-7.6,17-17,17c-2.1,0-4.1-0.4-5.9-1.1c-0.4,1.3-0.1,2.7,0.9,3.7L22.3,47c1.4,1.4,3.8,1.4,5.2,0l19.4-19.4
		c0.8-0.8,1.1-1.8,1.1-2.9L47.1,12.2z M40.6,19.4c-1.1,1.1-2.9,1.1-4,0s-1.1-2.9,0-4s2.9-1.1,4,0C41.7,16.4,41.7,18.2,40.6,19.4z"/>
	<path class="st0" d="M27.9,14c0-7.7-6.3-14-14-14S0,6.3,0,14s6.3,14,14,14S27.9,21.7,27.9,14z M8.8,19.9l0.7-4.3l-3.1-3.1
		C5.9,12,6.2,11.1,6.9,11l4.3-0.6l1.9-3.9c0.3-0.7,1.3-0.7,1.6,0l1.9,3.9L21,11c0.7,0.1,1,1,0.5,1.5l-3.1,3.1l0.7,4.3
		c0.1,0.7-0.6,1.3-1.3,0.9l-3.9-2l-3.9,2C9.4,21.2,8.7,20.6,8.8,19.9z"/>
</g>
</svg>
