<?xml version="1.0" encoding="utf-8"?>
<!-- Generator: Adobe Illustrator 27.2.0, SVG Export Plug-In . SVG Version: 6.00 Build 0)  -->
<svg version="1.1" id="Layer_1" xmlns="http://www.w3.org/2000/svg" xmlns:xlink="http://www.w3.org/1999/xlink" x="0px" y="0px"
	 viewBox="0 0 64 64" style="enable-background:new 0 0 64 64;" xml:space="preserve">
<style type="text/css">
	.st0{clip-path:url(#SVGID_00000167364075827667877330000016244368726917788582_);}
	.st1{clip-path:url(#SVGID_00000096032362382346087910000001365797711486613636_);}
	.st2{fill:#FFFFFF;}
	.st3{fill:#D02027;}
	.st4{fill:#18325B;}
</style>
<g>
	<g>
		<defs>
			<circle id="SVGID_1_" cx="32" cy="32" r="31.2"/>
		</defs>
		<clipPath id="SVGID_00000173877205710862669810000009450287056833967775_">
			<use xlink:href="#SVGID_1_"  style="overflow:visible;"/>
		</clipPath>
		<g style="clip-path:url(#SVGID_00000173877205710862669810000009450287056833967775_);">
			<defs>
				<rect id="SVGID_00000026874860940874918930000004920234725549586327_" x="-14.8" y="0.7" width="93.6" height="62.4"/>
			</defs>
			<clipPath id="SVGID_00000065793276335783611350000007242396446887508384_">
				<use xlink:href="#SVGID_00000026874860940874918930000004920234725549586327_"  style="overflow:visible;"/>
			</clipPath>
			<g style="clip-path:url(#SVGID_00000065793276335783611350000007242396446887508384_);">
				<rect x="-14.8" y="0.7" class="st2" width="93.6" height="62.4"/>
				<polyline class="st3" points="78.8,25.7 36.7,25.7 36.7,0.7 27.3,0.7 27.3,25.7 -14.8,25.7 -14.8,38.2 27.3,38.2 27.3,63.1 
					36.7,63.1 36.7,38.2 78.8,38.2 				"/>
				<path class="st3" d="M47.6,42.3h7l24.2,16.1v4.7 M16.4,21.5h-7L-14.8,5.4V0.7L16.4,21.5z M16.4,42.3h7L-7.8,63.1h-7L16.4,42.3z
					 M47.6,21.5h-7L71.8,0.7h7L47.6,21.5z"/>
				<path class="st4" d="M-14.8,42.3v13.8L5.9,42.3 M78.8,42.3v13.8L58.1,42.3H78.8z M-14.8,21.5V7.7L5.9,21.5H-14.8z M78.8,21.5
					V7.7L58.1,21.5H78.8z M24.2,63.1v-19l-28.5,19H24.2z M39.8,63.1v-19l28.5,19H39.8z M24.2,0.7v19l-28.5-19H24.2z M39.8,0.7v19
					l28.5-19H39.8z"/>
			</g>
		</g>
	</g>
</g>
</svg>
