<?xml version="1.0" encoding="utf-8"?>
<!-- Generator: Adobe Illustrator 27.2.0, SVG Export Plug-In . SVG Version: 6.00 Build 0)  -->
<svg version="1.1" id="Layer_1" xmlns="http://www.w3.org/2000/svg" xmlns:xlink="http://www.w3.org/1999/xlink" x="0px" y="0px"
	 viewBox="0 0 48 48" style="enable-background:new 0 0 48 48;" xml:space="preserve">
<style type="text/css">
	.st0{fill:#00A94F;}
</style>
<g>
	<path class="st0" d="M16.9,32.3L7.6,47.8h5.8l7-11.7C19.5,35.1,18.2,33.8,16.9,32.3L16.9,32.3z"/>
	<path class="st0" d="M25,38.5l-1,0.9l-1-0.9c-0.1-0.1-0.3-0.3-0.8-0.7h-1l-2.8,4.6h26.4L42,37.8H25.8C25.4,38.2,25.1,38.4,25,38.5
		L25,38.5z"/>
	<path class="st0" d="M11.9,37.8H6l-2.8,4.6h5.9L11.9,37.8z"/>
	<path class="st0" d="M24,37.3c0,0,15.1-13.7,15.1-22S32.3,0.2,24,0.2S8.9,7,8.9,15.3S24,37.3,24,37.3z M18.6,15.3
		c0-3,2.4-5.4,5.4-5.4s5.4,2.4,5.4,5.4S27,20.7,24,20.7S18.6,18.3,18.6,15.3z"/>
	<path class="st0" d="M15.9,31.1l0.2-0.3h-0.4h-3.8c-1.1,0-2.1,0.6-2.6,1.5L7,36.2h5.9L15.9,31.1z"/>
	<path class="st0" d="M36.1,30.9h-3.8c-1.8,2.1-3.6,4-5,5.4H41l-2.3-3.9C38.2,31.4,37.2,30.9,36.1,30.9L36.1,30.9z"/>
	<path class="st0" d="M2.4,43.9c-0.4,1.9,0.9,3.8,3,3.8h0.4l2.3-3.8H2.4z"/>
	<path class="st0" d="M45.6,43.9H17.5l-2.3,3.8h27.3C44.6,47.8,46,45.8,45.6,43.9z"/>
</g>
</svg>
