<?xml version="1.0" encoding="utf-8"?>
<!-- Generator: Adobe Illustrator 27.2.0, SVG Export Plug-In . SVG Version: 6.00 Build 0)  -->
<svg version="1.1" id="Layer_1" xmlns="http://www.w3.org/2000/svg" xmlns:xlink="http://www.w3.org/1999/xlink" x="0px" y="0px"
	 viewBox="0 0 48 48" style="enable-background:new 0 0 48 48;" xml:space="preserve">
<style type="text/css">
	.st0{fill:#00A94F;}
</style>
<g id="Layer_24">
	<path class="st0" d="M32.4,13.9c-2.8,0-5.1-2.3-5.1-5.1V0.4H10.9C8,0.3,5.6,2.6,5.5,5.5v37.1c0.1,2.9,2.5,5.1,5.4,5.1h26.2
		c2.9,0.1,5.3-2.2,5.4-5.1V13.9H32.4z M30.3,30.3l-5.1,5.1c-0.7,0.7-1.7,0.7-2.4,0l0,0l-5.1-5.1c-0.7-0.7-0.7-1.7,0-2.4
		c0.7-0.7,1.7-0.7,2.4,0l2.2,2.2V18.9c0-0.9,0.8-1.7,1.7-1.7c0.9,0,1.7,0.8,1.7,1.7V30l2.2-2.2c0.7-0.7,1.7-0.7,2.4,0
		C30.9,28.5,30.9,29.6,30.3,30.3L30.3,30.3z M30.7,0.4h0.7c0.4,0,0.8,0.2,1.1,0.4L42,9.3c0.4,0.3,0.6,0.8,0.6,1.2H32.4
		c-0.9,0-1.7-0.8-1.7-1.7V0.4z"/>
</g>
</svg>
